<mxfile host="app.diagrams.net" agent="Mozilla/5.0 (Windows NT 10.0; Win64; x64; rv:137.0) Gecko/20100101 Firefox/137.0" version="26.2.13">
  <diagram name="Page-1" id="5gNzV0a299R1AcbTNUMc">
    <mxGraphModel dx="1228" dy="672" grid="1" gridSize="10" guides="1" tooltips="1" connect="1" arrows="1" fold="1" page="1" pageScale="1" pageWidth="1169" pageHeight="827" math="0" shadow="0">
      <root>
        <mxCell id="0" />
        <mxCell id="1" parent="0" />
        <mxCell id="-CglULp98W2lR8GV_lNq-9" value="CI pipeline" style="edgeStyle=orthogonalEdgeStyle;rounded=0;orthogonalLoop=1;jettySize=auto;html=1;fontFamily=Verdana;fontSize=14;" edge="1" parent="1" source="-CglULp98W2lR8GV_lNq-1" target="-CglULp98W2lR8GV_lNq-3">
          <mxGeometry relative="1" as="geometry" />
        </mxCell>
        <mxCell id="-CglULp98W2lR8GV_lNq-1" value="" style="shape=image;verticalLabelPosition=bottom;labelBackgroundColor=default;verticalAlign=top;aspect=fixed;imageAspect=0;editableCssRules=.*;image=data:image/svg+xml,PHN2ZyB2aWV3Qm94PSI2Ljc2NzU5ODE1MjE2MDY0NDUgLTEuMTA2MzU5OTU4NjQ4NjgxNiAxODkuMjY4MzcxNTgyMDMxMjUgMjk0Ljk5OTA1Mzk1NTA3ODEiIHhtbG5zPSJodHRwOi8vd3d3LnczLm9yZy8yMDAwL3N2ZyIgd2lkdGg9IjE4OS4yNjgzNzE1ODIwMzEyNSIgaGVpZ2h0PSIyOTQuOTk5MDUzOTU1MDc4MSI+PHBhdGggZD0iTTEzNC45NTYgMTQxLjY3NGwtMTUuNjMyIDIuMzQ1LTIxLjEwNCAyLjM0NS0xMy42NzkuMzktMTMuMjg2LS4zOS0xMC4xNjEtMy4xMjctOC45ODktOS43Ny03LjAzNS0xOS45My0xLjU2Mi00LjMtOS4zOC0zLjEyNi01LjQ3LTguOTg5LTMuOTEtMTIuODk3IDQuMy0xMS4zMzQgMTAuMTYtMy41MTcgOC4yMDYgMy45MDggMy45MDkgOC41OTggNC42OS0uNzgzIDEuNTYyLTEuOTUzLTEuNTYyLTguOTg5LS4zOTItMTEuMzM0IDIuMzQ1LTE1LjYzMS0uMDkxLTguOTI5TDY1IDIyLjg3bDEyLjUwNi04Ljk4OSAyMS44ODUtOS4zNzlMMTIzLjYyIDguMDJsMjEuMTA0IDE1LjI0MSA5Ljc3MSAxNS42MzEgNi4yNTIgMTEuMzM0IDEuNTYzIDI4LjEzOC00LjY5IDI0LjIzLTguNTk4IDIxLjQ5My04LjIwNiAxMS4zMzQiIGZpbGw9IiNGMEQ2QjciLz48cGF0aCBkPSJNMTIxLjY2OCAyMDkuMjgxbC01NS44ODcgMi4zNDV2OS4zNzlsNC42OSAzMi44MjgtMi4zNDUgMi43MzYtMzkuMDgtMTMuMjg4LTIuNzM2LTQuNjktMy45MDctNDQuMTYtOC45ODgtMjYuNTc1LTEuOTU1LTYuMjUyIDMxLjI2NS0yMS40OTMgOS43NzEtMy45MDkgOC41OTggMTAuNTUyIDcuNDI1IDYuNjQ0IDguNTk4IDIuNzM1IDMuOTA4IDEuMTcyIDQuNjg3IDIwLjMyMSAzLjUxOCA0LjI5OSA4Ljk4OS0zLjEyNi02LjI1NCAxMi4xMTYgMzQgMTYuMDIzLTQuMjk3IDIuMzQzIiBmaWxsPSIjMzM1MDYxIi8+PHBhdGggZD0iTTI5LjA0NyA3Mi44OTFsMTAuMTYtMy41MTcgOC4yMDcgMy45MDkgMy45MDggOC41OTcgNC42OS0uNzgyIDEuMTczLTQuNjktMi4zNDUtOC45ODggMi4zNDUtMjEuNDk1LTEuOTU1LTExLjcyNCA3LjAzNS04LjIwNkw3Ny41MDYgMTMuODhsLTQuMjk5LTUuODYzTDUxLjcxNCAxOC41N2wtOC45ODkgNy4wMzUtNS4wOCAxMC45NDItNy44MTYgMTAuNTUyLTIuMzQ1IDEyLjUwNiAxLjU2MyAxMy4yODciIGZpbGw9IiM2RDZCNkQiLz48cGF0aCBkPSJNNDUuMDY5IDM2LjE1NnM1Ljg2Mi0xNC40NTggMjkuMzEtMjEuNDkzUzc1LjU1IDkuNTggNzUuNTUgOS41OGwtMjUuNCA5Ljc3My05Ljc3MSA5Ljc3LTQuMjk4IDcuODE2IDguOTg4LS43ODNtLTExLjcyNCAzNFMyNS4xMzkgNDIuOCA1Ni40MDMgMzguODkxbC0xLjE3My00LjY5LTIxLjQ5NCA1LjA4Mi02LjI1MyAyMC4zMiAxLjU2MyAxMy4yODggNC4yOTktMi43MzUiIGZpbGw9IiNEQ0Q5RDgiLz48cGF0aCBkPSJNNDUuODUxIDEwNi41MDFsNS4xMTgtNC45NTdzMi4zMS4yNjkgMi43IDMuMDA0Yy4zOSAyLjczNiAxLjU2MiAyNy4zNTcgMTguMzY3IDQwLjY0NCAxLjUzMyAxLjIxMy0xMi41MDUtMS45NTUtMTIuNTA1LTEuOTU1bC0xMi41MDctMTkuNTRtNzAuNzM3LTI0LjYyMXMuOTEyLTExLjg0NiA0LjEwMi0xMC45MzVjMy4xOS45MTEgMy4xOSA0LjEwMSAzLjE5IDQuMTAxcy03Ljc0OCA1LjAxMy03LjI5MiA2LjgzNG0zMi40MzUtNDMuMzc4cy02LjQ0MSAxLjM2LTcuMDM1IDcuMDM1Yy0uNTk0IDUuNjc2IDcuMDM1IDEuMTcyIDguMjA2Ljc4Mm0tNDguNDU4LTcuNDI2Uzk0LjMxIDU3LjI2IDk0LjMxIDYyLjczYzAgNS40NzEgOS43NzEgNS4wODEgMTIuNTA2IDIuNzM2TTQ5Ljc1OSA4MS40OXMtMTQuODUxLTguOTg5LTE2LjQxNC0uMzljLTEuNTYyIDguNTk4LTUuMDgxIDE0Ljg1MSAyLjM0NSAyMy44MzlsLTUuMDgtMS41NjMtNC42OS0xMi4xMTUtMS41NjItMTEuNzIzIDguOTg3LTkuMzggMTAuMTYxLjc4MiA1Ljg2MyA0LjY5LjM5IDUuODZtNy4wMzUtMjQuNjJzNi42NDQtMzQuMzkgNDAuMjU0LTQxLjAzNGMyNy42Ny01LjQ2OSA0Mi4yMDYgMS4xNzMgNDcuNjc3IDcuNDI1IDAgMC0yNC42Mi0yOS4zMDktNDguMDY5LTIwLjMyMS0yMy40NDggOC45ODktNDAuNjQyIDI1LjQwMi00MC4yNTIgMzUuOTUyLjY2NSAxNy45Ny4zOSAxNy45NzguMzkgMTcuOTc4bTkwLjY2Ny0yOS43MDNzLTExLjMzMi0uMzktMTEuNzI0IDkuNzcyYzAgMCAwIDEuNTYyLjc4MiAzLjEyNiAwIDAgOC45OS0xMC4xNjEgMTQuNDYtNC42OSIgZmlsbD0iI0Y3RTRDRCIvPjxwYXRoIGQ9Ik05Ny44MzUgNDEuMTIzcy0xLjk1MS0xNS41OTctMTUuMjQ5LTYuNTNjLTguNTk3IDUuODYzLTcuODE1IDE0LjA3LTYuMjUyIDE1LjYzMiAxLjU2MiAxLjU2NCAxLjEzNyA0LjcxMyAyLjMyNyAyLjU1MSAxLjE4OS0yLjE2MS43OTgtOS4xOTUgNS4wOTgtMTEuMTQ4IDQuMjk4LTEuOTU0IDExLjM0Ni00LjEzNyAxNC4wNzYtLjUwNSIgZmlsbD0iI0Y3RTRDRCIvPjxwYXRoIGQ9Ik02MS4wOTMgMTQ2Ljc1NGwtMzYuNzM2IDE2LjQxNFMzOS42IDIyMy43NDEgMzEuNzg0IDI0Mi41bC01LjQ3Mi0xLjk1NC0uMzkxLTIzLjA1Ny0xMC4xNi00My43Ny00LjMtMTIuMTE2IDM4LjI5OS0yNS43OTIgMTEuMzM0IDEwLjk0Mm0zLjc3NiAzMy41MDRsNS4yMTEgNi4zNnYyMy40NDhoLTYuMjUzcy0uNzgyLTE2LjQxNC0uNzgyLTE4LjM2OWMwLTEuOTU0Ljc4Mi04Ljk4OS43ODItOC45ODlNNjUgMjEzLjU4MmwtMTcuNTg2Ljc4IDUuMDgxIDMuNTE4TDY1IDIxOS44MzQiIGZpbGw9IiM0OTcyOEIiLz48cGF0aCBkPSJNMTI1LjE4NSAyMDkuNjc0bDE0LjQ1OS0uMzkxIDMuNTE3IDM1Ljk1NS0xNC44NTEgMS45NTMtMy4xMjUtMzcuNTE3IiBmaWxsPSIjMzM1MDYxIi8+PHBhdGggZD0iTTEyOS4wOTMgMjA5LjY3NGwyMS44ODUtMS4xNzNzOC45ODctMjIuNjY2IDguOTg3LTIzLjgzOSA3LjgxNi0zMi44MjcgNy44MTYtMzIuODI3bC0xNy41ODYtMTguMzY4LTMuNTE4LTMuMTI2LTkuMzc4IDkuMzc5djM2LjM0NWwtOC4yMDcgMzMuNjA5IiBmaWxsPSIjMzM1MDYxIi8+PHBhdGggZD0iTTEzOC44NjMgMjA2LjkzOGwtMTMuNjc4IDIuNzM1IDEuOTU0IDEwLjk0M2M1LjA4IDIuMzQ1IDEzLjY3OS0zLjkwOSAxMy42NzktMy45MDltLTEuNTY0LTc4LjE1OWwyNy4zNTYgMjAuMzIuNzgyLTkuMzc4LTIwLjcxMi0xOS4xNDktNy40MjYgOC4yMDYiIGZpbGw9IiM0OTcyOEIiLz48cGF0aCBkPSJNNzguNTYzIDI4Ni42NjVsLTguMDkyLTMyLjgzMy00LjAyNC0yNC4yMjUtLjY2NS0xNy45OCAzNi42Mi0xLjk1IDIyLjc4My0uMDA0LTIuMDcxIDQxLjAzNyAzLjUxNyAzMS42NTUtLjM5IDUuODYzLTI5LjcgMi4zNDUtMTcuOTc5LTMuOTA4IiBmaWxsPSIjRkZGIi8+PHBhdGggZD0iTTEyMC4xMDQgMjA5LjI4MnMtMS45NTQgNDAuNjQ0IDMuOTA4IDY5LjU2M2MwIDAtMTEuNzIzIDcuNDI2LTI4LjkyIDkuMzc5bDMyLjgyOC0xLjE3MyAzLjkwNy0yLjM0NS00LjY5LTY0LjA5MS0xLjE3Mi0xMy42OCIgZmlsbD0iI0RDRDlEOCIvPjxwYXRoIGQ9Ik0xNDMuODI3IDI0Mi4xMTRsMTUuMjQyLTQuMjk5IDI4LjkxOS0xLjU2MyA0LjI5OC0xMy4yODYtNy44MTYtMjMuMDU3LTguOTg3LTEuMTczLTEyLjUwNyAzLjkwOC0xMS45OTggNS44NTgtNi4zNy0xLjE2OC00Ljk2NCAxLjk1IiBmaWxsPSIjRkZGIi8+PHBhdGggZD0iTTE0My41NTEgMjM0LjI5NHMxMC4xNi00LjY4OSAxMS43MjQtNC4yOThsLTQuMjk4LTIxLjQ5NSA1LjA4LTEuOTU0czMuNTE4IDIwLjMyMiAzLjUxOCAyMi42NjdjMCAwIDIxLjg4NCAxLjE3MiAyMy44MzkgMS4xNzIgMCAwIDQuNjktOC45ODkgMy41MTctMTguMzY3bDQuMjk5IDEyLjUwNi4zOSA3LjAzNS02LjI1MiA5LjM3OS03LjAzNSAxLjU2Mi0xMS43MjQtLjM5MS0zLjkwOC01LjA4LTEzLjY3OCAxLjk1NC00LjMgMS41NjMiIGZpbGw9IiNEQ0Q5RDgiLz48cGF0aCBkPSJNMTI4LjE5NSAyMDYuNTUxbC04LjU5OC0yMS44ODUtOC45ODgtMTIuODk3czEuOTUzLTUuNDcxIDQuNjktNS40NzFoOC45ODhsOC41OTggMy4xMjYtLjc4MSAxNC40Ni0zLjkwOSAyMi42NjciIGZpbGw9IiNGRkYiLz48cGF0aCBkPSJNMTI5Ljg3NSAxOTkuMTIxcy0xMC45NDQtMjEuMTAyLTEwLjk0NC0yNC4yMjljMCAwIDEuOTU0LTQuNjkgNC42OS0zLjUxN3M4LjU5OSA0LjI5OCA4LjU5OSA0LjI5OHYtNy40MjVsLTEzLjI4OC0yLjczNy04Ljk4NyAxLjE3MyAxNS4yNDEgMzUuOTU0IDMuMTI2LjM5IiBmaWxsPSIjRENEOUQ4Ii8+PHBhdGggZD0iTTgyLjA4IDE0Ny41NGwtMTAuODI2LTEuMTc3LTEwLjE2Mi0zLjEyN3YzLjUxOGw0Ljk2NiA1LjQ3NSAxNS42MzIgNy4wMzUiIGZpbGw9IiNGRkYiLz48cGF0aCBkPSJNNjQuNjExIDE0OC43MTFzMTIuMTE2IDUuMDgxIDE2LjAyNCAzLjkwOWwuMzg5IDQuNjg1LTEwLjk0LTIuMzQtNi42NDQtNC42OSAxLjE3MS0xLjU2NCIgZmlsbD0iI0RDRDlEOCIvPjxwYXRoIGQ9Ik0xNDMuNzg1IDE2Ny42MjljLTYuNjMxLS4xOTUtMTIuNjIzLS45ODMtMTcuODY3LTIuNDYzLjM1Ni0yLjE1LS4zMTItNC4yNi4yMjQtNS44MDkgMS40NjMtMS4wNTIgMy45MTMtMS4wMzYgNi4xMjMtMS4yODMtMS45MTEtLjkzOS00LjU5Ni0xLjMxMi02LjgwMS0uNzY4LS4wNTItMS40OTItLjcyMi0yLjQxNy0xLjEyNy0zLjU4NSAzLjczLTEuMzMxIDEyLjUzLTEwLjA1NSAxNy40OC03LjE2NiAyLjM2IDEuMzc0IDMuMzYyIDkuMjIyIDMuNTQ0IDEzLjAzOS4xNTQgMy4xNjUtLjI4NiA2LjM1Ny0xLjU3NiA4LjAzNSIgZmlsbD0iI0QzMzgzMyIvPjxwYXRoIGQ9Ik0xNDMuNzg1IDE2Ny42MjljLTYuNjMxLS4xOTUtMTIuNjIzLS45ODMtMTcuODY3LTIuNDYzLjM1Ni0yLjE1LS4zMTItNC4yNi4yMjQtNS44MDkgMS40NjMtMS4wNTIgMy45MTMtMS4wMzYgNi4xMjMtMS4yODMtMS45MTEtLjkzOS00LjU5Ni0xLjMxMi02LjgwMS0uNzY4LS4wNTItMS40OTItLjcyMi0yLjQxNy0xLjEyNy0zLjU4NSAzLjczLTEuMzMxIDEyLjUzLTEwLjA1NSAxNy40OC03LjE2NiAyLjM2IDEuMzc0IDMuMzYyIDkuMjIyIDMuNTQ0IDEzLjAzOS4xNTQgMy4xNjUtLjI4NiA2LjM1Ny0xLjU3NiA4LjAzNXoiIHN0cm9rZS13aWR0aD0iMi41IiBzdHJva2U9IiNEMzM4MzMiIGZpbGw9Im5vbmUiLz48cGF0aCBkPSJNMTEyLjA3NSAxNTYuNzg5Yy0uMDE4LjUwMS0uMDM5IDEuMDA3LS4wNTkgMS41MTQtMi4wNyAxLjM2LTUuNDEyIDEuMzQzLTcuNjg1IDIuNDg2IDMuMzUuMTQ2IDUuOTg2Ljk1NCA4LjI2OCAyLjA5bC0uMTQ4IDMuNzljLTMuNzk1IDIuNTk3LTcuMjYyIDYuNDY3LTExLjczIDguOTAzLTIuMTEyIDEuMTUzLTkuNTI3IDQuMTE4LTExLjc3NSAzLjU5NC0xLjI3MS0uMjk1LTEuMzg2LTEuODc0LTEuODk1LTMuMzYxLTEuMDgyLTMuMTg1LTMuNTc2LTguMjU2LTMuNzk0LTEzLjA1MS0uMjc3LTYuMDU3LS44ODgtMTYuMjA4IDUuNjQtMTQuOTYgNS4yNjUgMS4wMDUgMTEuMzkgMy40MyAxNS40NjcgNS42NTcgMi40OSAxLjM2MyAzLjkzMSAzLjA0NiA3LjcxMSAzLjMzOCIgZmlsbD0iI0QzMzgzMyIvPjxwYXRoIGQ9Ik0xMTIuMDc1IDE1Ni43ODljLS4wMTguNTAxLS4wMzkgMS4wMDctLjA1OSAxLjUxNC0yLjA3IDEuMzYtNS40MTIgMS4zNDMtNy42ODUgMi40ODYgMy4zNS4xNDYgNS45ODYuOTU0IDguMjY4IDIuMDlsLS4xNDggMy43OWMtMy43OTUgMi41OTctNy4yNjIgNi40NjctMTEuNzMgOC45MDMtMi4xMTIgMS4xNTMtOS41MjcgNC4xMTgtMTEuNzc1IDMuNTk0LTEuMjcxLS4yOTUtMS4zODYtMS44NzQtMS44OTUtMy4zNjEtMS4wODItMy4xODUtMy41NzYtOC4yNTYtMy43OTQtMTMuMDUxLS4yNzctNi4wNTctLjg4OC0xNi4yMDggNS42NC0xNC45NiA1LjI2NSAxLjAwNSAxMS4zOSAzLjQzIDE1LjQ2NyA1LjY1NyAyLjQ5IDEuMzYzIDMuOTMxIDMuMDQ2IDcuNzExIDMuMzM4eiIgc3Ryb2tlLXdpZHRoPSIyLjUiIHN0cm9rZT0iI0QzMzgzMyIgZmlsbD0ibm9uZSIvPjxwYXRoIGQ9Ik0xMTUuODQ0IDE2NC4wMTVjLS41NzktMy4yOTktMS4yNDktNC4yNC0uOTktNy4xMTkgOC44LTUuODY2IDEwLjQ1MiAxMC4wNzYuOTkgNy4xMTkiIGZpbGw9IiNEMzM4MzMiLz48cGF0aCBkPSJNMTE1Ljg0NCAxNjQuMDE1Yy0uNTc5LTMuMjk5LTEuMjQ5LTQuMjQtLjk5LTcuMTE5IDguOC01Ljg2NiAxMC40NTIgMTAuMDc2Ljk5IDcuMTE5eiIgc3Ryb2tlLXdpZHRoPSIyLjUiIHN0cm9rZT0iI0QzMzgzMyIgZmlsbD0ibm9uZSIvPjxwYXRoIGQ9Ik0xMjguNTg1IDE2Ni42ODlzLTIuNzM2LTMuOTA5LS43ODMtNS4wODFjMS45NTUtMS4xNzMgMy45MSAwIDUuMDgyLTEuOTU0IDEuMTcyLTEuOTU1IDAtMy4xMjcuMzktNS40NzJzMi4zNDYtMi43MzYgNC4yOTgtMy4xMjZjMS45NTQtLjM5IDcuNDI3LTEuMTcyIDguMjA3Ljc4M2wtMi4zNDUtNy4wMzUtNC42OS0xLjU2My0xNC44NTEgOC41OTgtLjc4MyA0LjI5OHY4LjU5OG0tMzUuNTU5IDE0Ljg1MWMtLjQ3LTYuMDk5LS45NjYtMTIuMTktMS41MTktMTguMjgyLS44MjctOS4wOTggMi4xODYtNy41MSAxMC4wNzItNy41MSAxLjIwNSAwIDcuNDE2IDEuNDM2IDcuODYxIDIuMzQ1IDIuMTMxIDQuMzU0LTMuNTY0IDMuMzg2IDIuNDU1IDYuNjY5IDUuMDgxIDIuNzcgMTQuMDU4LTEuNjgzIDEyLjAwNC03Ljg0Mi0xLjE0OS0xLjM2OS01Ljk4Ny0uNDI2LTcuNzItMS4zMjZsLTkuMTU5LTQuNzQ5Yy0zLjg4NS0yLjAxNS0xMi44NjItNC45NTMtMTcuMDA0LTIuMTM3LTEwLjQ5MyA3LjEzNi42NjMgMjQuOTY3IDQuNDA3IDMyLjQxMiIgZmlsbD0iI0VGM0QzQSIvPjxwYXRoIGQ9Ik05Ny44MzUgNDEuMTIzQzg3LjE4NCAzOC42NCA4MS44OTEgNDUuNTggNzguNjYzIDUyLjc3NmMtMi44ODMtLjY5OC0xLjczNy00LjYxOC0xLjAwOC02LjYxNyAxLjkwNi01LjI0MyA5LjU5LTEyLjIyMyAxNS44NjgtMTEuMjc2IDIuNy40MDcgNi4zNTcgMi44NzcgNC4zMTIgNi4yNG01MS44OTggMTIuMTI5Yy4xNjcuMDA4LjMzNy4wMTMuNTA1LjAyIDIuNDA3IDUgNC40OSAxMC4yOTggNy41MjYgMTQuNzEyLTIuMDM0IDQuNzM3LTE1LjQwMyA4LjkzLTE1LjE5Ni40MjQgMi44OS0xLjI2NCA3Ljg4Mi0uMjU4IDEwLjQ0NS0xLjg3My0xLjQ4Mi00LjA2OC0zLjYyLTcuNTI5LTMuMjgtMTMuMjgzbS00Ni40NDYuMTMxYzIuMjg0IDQuMTg2IDMuMDI4IDguNTg1IDYuMjc0IDExLjc1IDEuNDYzIDEuNDI1IDQuMzA1IDMuMTYgMi44OTYgNy4xMjItLjMzLjkzNS0yLjczNiAzLjAxOC00LjEyNiAzLjQyOC01LjA3NSAxLjQ5OC0xNi45MDEuMzEtMTIuODk2LTYuMDE4IDQuMTk3LjE5NiA5LjgzOSAyLjcyNiAxMi45NzYtLjMyMS0yLjQwOS0zLjg1My02LjcwNS0xMS40NzEtNS4xMjQtMTUuOTYxbTQ0LjU0IDQyLjU1MWMtNy42NCA0LjkwOS0xNi4xNjIgMTAuMjQ2LTI4LjY4MyA5LjAwOS0yLjY3NS0yLjMyNy0zLjY5NS03LjUwMy0xLjA5Ny0xMC45MjIgMS4zNTMgMi4zMjYuNTAzIDYuNjA0IDQuMjc0IDcuMjQ4IDcuMTA1IDEuMjE2IDE1LjM3NC00LjM0NyAyMC40ODQtNi4yOSAzLjE2OS01LjM0My0uMjc0LTcuMzA4LTMuMTI3LTEwLjc0Ny01Ljg0NS03LjA0NS0xMy42ODQtMTUuNzc3LTEzLjQtMjYuMzIzIDIuMzYyLTEuNzEzIDIuNTY2IDIuNjE1IDIuOTA0IDMuNDAyIDMuMDUyIDcuMTQzIDEwLjczMyAxNi4yNzYgMTYuMzM4IDIyLjM5IDEuMzc2IDEuNTA1IDMuNjQzIDIuOTUgMy44OTUgMy45NDUuNzI4IDIuODk1LTEuODkxIDYuMzYzLTEuNTg3IDguMjg4TTQ3LjA4NSA5MC43NjZjLTIuMzk1LTEuMzY3LTIuOTY1LTcuMzg5LTUuNzc3LTcuNTYtNC4wMi0uMjQ0LTMuMjg3IDcuODExLTMuMjcgMTIuNTIzLTIuNzY3LTIuNTEyLTMuMjUzLTEwLjI0NC0xLjIyLTE0LjIxNC0yLjMxNy0xLjEzOC0zLjM1IDEuMjU1LTQuNjM1IDIuMDk3IDEuNjUtMTEuOTkzIDE3LjU0NC01LjU2MyAxNC45MDIgNy4xNTRtMTA1LjYwOSAxMC4xNjNjLTMuNTU4IDYuNzcxLTguNTg5IDE0LjIyNy0xOS4wMjggMTQuNDQ0LS4yMTItMi4xODctLjM3NS01LjUxNC4wMTEtNi44MyA3Ljk4LS43NjcgMTIuOTA3LTQuODI4IDE5LjAxNy03LjYxNG0tNTAuMDA4IDQuMzljNi42NTggMy41MDEgMTguODkzIDMuODc3IDI3Ljk0MSAzLjYxMi40ODUgMS45ODMuNDc0IDQuNDMyLjQ5MyA2Ljg0OS0xMS42MzEuNTgtMjUuMzg0LTIuMjk5LTI4LjQzNC0xMC40NjFtLTEuMjY2IDYuNTI3YzQuNjA0IDExLjU1OSAyMC40MjYgMTAuMjI4IDMzLjc3IDkuOTA5LS41ODcgMS41MDEtMS44NiAzLjI3NC0zLjQ0NCAzLjkxNS00LjI3NiAxLjc0LTE2LjA2OSAzLjA2LTIyLjAwNS0uMDkyLTMuNzY1LTIuMDAyLTYuMTgzLTYuNTI0LTguMjQ2LTkuMTc0LS45OTUtMS4yOC01Ljk1NS00LjU1LS4wNzUtNC41NTgiIGZpbGw9IiMyMzFGMjAiLz48cGF0aCBkPSJNMTQ3LjI3MyAxNzUuNjA1Yy01LjQwMyA5LjI1Mi0xMC41NzIgMTguNzU2LTE2Ljk4MiAyNi45MTcgMi42ODgtNy45IDMuODM4LTIxLjEyNSA0LjI0My0zMS4yMDYgNS42MjEtMi42MyAxMC40MzUuNTkzIDEyLjczOCA0LjI4OSIgZmlsbD0iIzgxQjBDNCIvPjxwYXRoIGQ9Ik0xNzYuMzQzIDIwOC44NjFjLTYuMDUgMS4yMTEtMTAuMyA3LjA4OS0xNi4yIDYuNzEzIDMuMjQzLTQuNTczIDguOTI2LTYuNSAxNi4yLTYuNzEzbTIuNjY4IDkuNDY1Yy00LjkzLjUyMi0xMC43MiAxLjMxOS0xNS43MjEuOTA4IDIuMzY4LTMuNjE1IDExLjQ4OC0yLjM2OCAxNS43MjEtLjkwOG0xLjcwOSA4LjE2MmMtNS41NDEuMTItMTIuNDI4LjAxLTE3LjY5NC0uNDMzIDMuMTE1LTMuMzQ1IDE0LjEtMS4yNDEgMTcuNjk0LjQzMiIgZmlsbD0iIzIzMUYyMCIvPjxwYXRoIGQ9Ik0xMzYuODQ3IDI0OC44MjFjLjc5NSA2Ljk1OSAzLjU1NCAxNC4wMDkgMy4yMDggMjEuNjMtMy4wNjQgMS4wMzMtNC44MjQgMS45MzYtOC45MjggMS45MzEtLjI5LTYuNDc2LTEuMTU2LTE2LjM3Ny0uODk3LTIyLjU1IDIuMDE5LjEzMiA0Ljk5NS0xLjQ0MyA2LjYxNy0xLjAxIiBmaWxsPSIjRENEOUQ4Ii8+PHBhdGggZD0iTTEyNy45MTQgMTQ2LjI2OWMtMi43ODMgMS44MTYtNS4xNTEgNC4wODQtNy44MjQgNi4wMjItNS45MjUuMjkzLTkuMTU5LS40MS0xMy41MTMtMy44MTIuMDcyLS4yNzQuNTEtLjE1MS41MjYtLjQ4NiA2LjM0MyAyLjgyNiAxNC40MDctMS4xNTMgMjAuODEtMS43MjQiIGZpbGw9IiNGMEQ2QjciLz48cGF0aCBkPSJNOTQuNjE4IDE4OS41MDRjMS43NDItNy41NTEgOC41Ny0xMS40NjMgMTQuNzctMTUuNjIxIDYuNCA4LjEyMiAxMC4yOTMgMTguNTY4IDE0LjU4IDI4LjY0OC0xMC4xMjctMy4wNTItMjAuNDc1LTguMDA1LTI5LjM1LTEzLjAyNyIgZmlsbD0iIzgxQjBDNCIvPjxwYXRoIGQ9Ik0xMzAuMjMgMjQ5LjgzMWMtLjI1OSA2LjE3NC42MDcgMTYuMDc1Ljg5NyAyMi41NTIgNC4xMDUuMDA1IDUuODY1LS44OTggOC45MjgtMS45MzIuMzQ2LTcuNjIxLTIuNDEzLTE0LjY3MS0zLjIwNy0yMS42My0xLjYyMy0uNDMyLTQuNiAxLjE0My02LjYxOCAxLjAxek02Ni4zMTggMjE0LjcyYzIuNzA2IDI0Ljg4MiA2LjYyNiA0NS43OTkgMTMuODE3IDY3LjgzMiAxNS45NTcgNC44NDUgMzUuMTk2IDUuMjY4IDQ5LjMwMS44OTUtMi41OS0xMi40MzYtMS40NTktMjcuNTc2LTIuOTcyLTQwLjg0Ni0xLjE0MS05Ljk3NS0uNTU5LTIwLjAxMS0yLjEyNC0zMC4xODgtMTcuMDkxLTMuNTU2LTQxLjI1LS44My01OC4wMjMgMi4zMDd6bTYyLjA2My0yLjE1Yy0uMTQ0IDEwLjY4Ni40NzkgMjEuMjI3IDEuMjk0IDMxLjkyNyA0LjEwNC0uNjE2IDYuODg3LTEuMDI3IDEwLjctMS44NjItMS4yMzgtMTAuMzAxLTEuMDg2LTIxLjg5MS0zLjYwOC0zMS4wMDQtMi45MTMuMDI2LTUuNDgtLjAzNS04LjM4Ni45Mzl6bTIwLjgxNy0xLjcyM2MtMS45NDgtLjQ0Ni00LjIxNi0uMDE3LTYuMDc2LjAxOS44NzUgOC43MTEgMi45OTcgMTguMzI0IDMuNzQ0IDI3LjQ2OCAyLjkyOC4wOSA0LjQ5MS0xLjI5IDYuOS0xLjc1NC4xMjgtOC4wMjgtLjcwMi0xOS4wODUtNC41NjgtMjUuNzMzem0zMS41MTggMjguNzk4YzYuMTAzLTEuNDgzIDkuOTQtOC45NTYgOC4yMzMtMTYuNjMxLTEuMTQ1LTUuMTYtMy4xODUtMTQuODczLTUuMzY5LTE4LjE3My0xLjYxNC0yLjQ0MS01Ljk4OC01LjYzNi05LjQ4LTMuNC01LjY4MSAzLjYzOC0xNS42OSA0LjY5NC0xOS44MzQgOS4wOTggMi4wNzggNi45MTcgMi43MjMgMTYuNDE4IDMuNTc5IDI1LjE4MiA3LjA5OC40NDMgMTUuODMxLTEuOTU0IDIxLjczNC41ODktNC4xMjEgMS4zMzUtOS40NjkgMS4zNDUtMTMuMDI5IDMuMjkxIDIuOTExIDEuNDA2IDkuNzI0IDEuMTIzIDE0LjE2Ni4wNDR6bS01Ni43NDktMzcuMTExYy00LjI4Ni0xMC4wODItOC4xNzgtMjAuNTI3LTE0LjU3OC0yOC42NS02LjIgNC4xNTgtMTMuMDI5IDguMDctMTQuNzcxIDE1LjYyIDguODc0IDUuMDIzIDE5LjIyMyA5Ljk3NiAyOS4zNSAxMy4wM3ptMTAuNTY3LTMxLjIxN2MtLjQwNiAxMC4wODEtMS41NTYgMjMuMzA1LTQuMjQzIDMxLjIwNiA2LjQxLTguMTYgMTEuNTc5LTE3LjY2NCAxNi45ODEtMjYuOTE3LTIuMzAzLTMuNjk2LTcuMTE3LTYuOTE5LTEyLjczOC00LjI4OXptLTExLjk3OC00LjI1NWMtMi40MjctLjI2MS00LjQ4OCAyLjc5MS03LjY0NiAxLjQ3MS0uNzI0LjgtMS4zODEgMS42NjctMi4xMTkgMi40NDcgNi45NzQgOC40MDMgMTAuMTQzIDIwLjMyNyAxNS41MjkgMzAuMjAzIDIuODktOS40ODcgMi41NTctMTkuODggMy4xOTQtMzAuMjM0LTMuOTcyLjI1Mi02LjE3NC0zLjU5Mi04Ljk1OC0zLjg4N3ptLTcuNzAxLTEwLjE2NWMtLjI1OSAyLjg3OS40MSAzLjgyLjk5IDcuMTE5IDkuNDYxIDIuOTU4IDcuODA5LTEyLjk4NS0uOTktNy4xMTl6bS0xMC40OTMtMy40NDVjLTQuMDc2LTIuMjI3LTEwLjItNC42NTMtMTUuNDY3LTUuNjU3LTYuNTI4LTEuMjQ5LTUuOTE1IDguOTA0LTUuNjM5IDE0Ljk2LjIxOCA0Ljc5NSAyLjcxMSA5Ljg2NiAzLjc5NCAxMy4wNTEuNTA5IDEuNDg4LjYyMyAzLjA2NiAxLjg5NSAzLjM2MSAyLjI0OC41MjQgOS42NjMtMi40NDEgMTEuNzc1LTMuNTkzIDQuNDY5LTIuNDM3IDcuOTM1LTYuMzA1IDExLjczLTguOTA0bC4xNDctMy43OWMtMi4yOC0xLjEzOC00LjkxOC0xLjk0NC04LjI2Ny0yLjA5IDIuMjcyLTEuMTQzIDUuNjE1LTEuMTI2IDcuNjg1LTIuNDg2LjAyLS41MDcuMDQxLTEuMDEyLjA1OS0xLjUxNC0zLjc3OS0uMjkxLTUuMjItMS45NzUtNy43MTEtMy4zMzh6bS0zOC45NC03LjA3MmMtMy4zODMgMy40MzUgOS40OSA4LjExNyAxMy41OSA4LjM3LS4wMjMtMi4xNzQgMS4yMzgtNC4yMjMuOTg0LTUuNzgzLTQuODY3LS44NTUtMTEuMjY2LS4yOTEtMTQuNTczLTIuNTg3em00MS42ODIgMS42MTJjLS4wMTYuMzM1LS40NTQuMjE0LS41MjUuNDg3IDQuMzU0IDMuNDAyIDcuNTg2IDQuMTA2IDEzLjUxMiAzLjgxMiAyLjY3My0xLjkzOSA1LjA0Mi00LjIwNiA3LjgyNC02LjAyMi02LjQwNS41NzItMTQuNDY5IDQuNTUtMjAuODExIDEuNzIzem0zOC4yNTkgMTEuNjAyYy0uMTgzLTMuODE3LTEuMTg1LTExLjY2NC0zLjU0NC0xMy4wNC00Ljk1MS0yLjg5LTEzLjc1MyA1LjgzNi0xNy40OCA3LjE2Ny40MDYgMS4xNjggMS4wNzUgMi4wOTMgMS4xMjYgMy41ODUgMi4yMDUtLjU0MiA0Ljg5LS4xNzEgNi44MDEuNzY4LTIuMjEuMjQ3LTQuNjYuMjMtNi4xMjIgMS4yODMtLjUzNiAxLjU0OS4xMzEgMy42NTktLjIyNSA1LjgwOSA1LjI0NSAxLjQ4IDExLjIzNiAyLjI2OCAxNy44NjcgMi40NjMgMS4yODktMS42NzcgMS43MjktNC44NyAxLjU3Ny04LjAzNXpNNTkuNzI2IDE0OS43Yy0xLjA2Mi0uNzU3LTguMjUtMTAuMTEtOS4yMzUtOS43MjEtMTMuMDA2IDUuMTI5LTI1LjE2NyAxMy45OTktMzYuMDM1IDIyLjM4OEMyNC44MTggMTg0LjYgMjkgMjExLjg0IDI5Ljc0IDIzOC4wOTVjMTEuODcgNS41NTEgMjIuMjk1IDEzLjU1NSAzOC40MDMgMTQuMzktMS44NjQtMTMuMTg4LTMuNTY1LTI0Ljk1My00LjYyNC0zNy4zNjktNC4wNDgtMS43MDYtOS44NTQuMDc4LTEzLjY0MS0uNTI5LS4wMzMtNC41NjMgNS43ODMtMS45OTggNi4yNjgtNS4wNjcuMzY1LTIuMzIxLTMuMi0yLjQ5OC0yLjAzOC02LjE1MiAyLjk2IDEuMDc2IDQuNTE2IDMuNDUzIDcuNjczIDQuMzQ2IDIuODg1LTYuMzEzLS4wNC0xNy40ODEuMzc1LTIyLjc1Ni4wNzktLjk5LjQ5NS01LjQ4OCAyLjcxNC00LjcgMS45NjQuNy0uMTEyIDExLjk2Mi4xMDMgMTYuOTU1LjE5NiA0LjYtLjU1NSA5LjA1IDEuMzA3IDExLjk0IDE1LjU2NC0yLjEyIDMxLjM4LTMuNDg4IDQ4LjIyLTMuOTUtMy43MDUtMS41OS04LjEwNi0zLjA5NC0xMi45MzEtNS44MTQtMi42MTYtMS40NzUtMTAuODYxLTQuNTQzLTExLjYxNi03LjAyOC0xLjIwNS0zLjk1OCAzLjE2LTYuMDY3IDMuOTA2LTkuNDYyLTcuODU2IDQuMjg1LTkuMzg5LTQuMTA4LTExLjI0OC0xMC4wNTMtMS42ODMtNS4zODUtMi42NDItOS40MDctMy4wNTYtMTIuNTEyLTYuNzY3LTMuMjI4LTE0LjAwMi02LjQ5NS0xOS44MjktMTAuNjMzem03OC43NjMtOC41OWMxMC44MzYtNS4yNTUgMTIuNzkgMTkuNjM5IDguNTQyIDI3LjY1OS42NTYgMi4zOTEgMi45MTUgMy4zMDggMy44MzYgNS40NTctNi4wNDcgMTAuODMzLTEyLjc2MyAyMC45NDYtMTguOTM1IDMxLjY1IDQuNTktMi44NTcgMTEuMTQ3LS41MSAxNi41NDgtMi42NSAxLjk3NC0uNzggMy40MDQtNS4zIDQuODk5LTguOTE2IDQuMTExLTkuOTQ3IDguNDI4LTIyLjQ4OCAxMC4zNDgtMzEuOTgyLjQzNC0yLjE2MyAxLjYxNS02Ljg3NiAxLjM1LTguODAxLS40NzItMy40NDgtNS4xNDgtNi4wMDMtNy41MjctOC4xMzQtNC4zODMtMy45MzgtNy4xNDMtNy40MDEtMTEuNzE0LTExLjA4My0xLjg1NCAyLjczNy01LjgzMiA0LjU3NC03LjM0NyA2Ljh6TTM0Ljk0NCA0NS4wMWMtNS4xNjQgNS42ODItNC4wODMgMTYuMzI4LTMuNDU4IDIzLjkwMiA5LjMzNC01Ljg3MiAyMS43MjEuNDYzIDIxLjYwNSAxMC40NSA0LjQ1Ni0uMTE4IDEuNjY1LTUuNTY0Ljg1OS05LjA3NC0yLjYzNC0xMS40NjEgNC40MzctMjMuOTE0LjMyMS0zNC4zOTUtNy45OTUuNjA1LTE0LjU2MiAzLjg3LTE5LjMyNyA5LjExN3pNNzEuODkgMTIuMDM1QzYwLjIgMTUuMzQ5IDQ1LjIxOSAyMy44NDIgNDAuNDE1IDM0LjM0NGMzLjcyLS41NCA2LjMwMS0yLjQxNyA5Ljk3MS0yLjY0OSAxLjM4Ni0uMDkgMy4yMDQuNTgxIDQuNzk4LjE4NSAzLjE3Ni0uNzg3IDUuODU2LTcuOTA5IDguMjUyLTEwLjU1OSAyLjMzNi0yLjU4NyA1LjE0My0zLjY5MiA3LjA2NC02LjA1MiAxLjIzNC0uNTk1IDMuMDU5LS41NTUgMy4xMy0yLjQwOC0uNTM1LS41NzEtMS4wOTktMS4wMDctMS43NC0uODI2em02MC44NTIgMy4xMTZDMTIwLjYxIDguMzA1IDEwMC4wNzMgMy4xNTYgODcuMTY2IDkuNTljLTEwLjQxNCA1LjE5My0yNC40OTEgMTMuNzg0LTI5LjI5MSAyNC42NzEgNC40ODQgMTAuNTA3LTEuMzI4IDIwLjEzMy0xLjY5OSAzMC43OTktLjE5NyA1LjY3NiAyLjY3MyAxMC42MyAyLjg5MyAxNi44MDktMS41MzQgMi41MzEtNi4yMjIgMi44NDItOS40NjcgMi42Ny0xLjA5Mi01LjQ2Ni0zLjAwMy0xMS42MDktOC42MzItMTIuMjI2LTcuOTY0LS44NzItMTMuNzg4IDUuNzItMTQuMTQ5IDEyLjYwNy0uNDI5IDguMSA2LjIyMSAyMS41MjUgMTUuNjQ2IDIwLjU5NCAzLjY0Mi0uMzYgNC41MzUtNC4wMSA4LjUwMy0zLjk3MyAyLjE1IDQuMjktMy4zMTcgNS42MzgtMy44NzkgOC43MDUtLjE0Ni43OTMuNDU0IDMuODkuODAyIDUuMzQzIDEuNzEzIDcuMDc0IDUuNTMgMTYuMjI3IDkuMjg2IDIxLjYxMiA0Ljc2NyA2LjgzIDE0LjEzMyA3Ljg2IDI0LjIxIDguNTI5IDEuOC0zLjg3NyA4LjQzLTMuNTU5IDEyLjc1LTIuNTQ0LTUuMTc3LTIuMDUtOS45OS03LjAyMS0xMy45OC0xMS40MjEtNC41ODItNS4wNDktOS4yMjMtMTAuNDY0LTkuNDU3LTE3LjA2MiA4LjY1OSAxMi4wMTIgMTUuODEzIDIyLjUwMyAzMS41NTggMjcuNzg3IDExLjkxNCAzLjk5NSAyNS44MjctMS44MzEgMzQuOTgyLTguMjYgMy43OTktMi42NzIgNi4wNjctNi45MTEgOC43NjctMTAuNzkyIDEwLjEwMi0xNC41MzMgMTQuODE3LTM1LjI3NCAxMy43OC01NS4zOC0uNDI3LTguMjktLjQwOC0xNi41NTQtMy4xOS0yMi4xMzItMi45MDgtNS44MzItMTIuNzQyLTExLjA1MS0xOC41LTUuNzc1LTEuMDY3LTUuNjcyIDQuNzg4LTkuMTggMTEuNjYzLTcuMTM4LTQuOTA1LTYuMzI1LTEwLjA1LTEzLjkzLTE3LjAxOC0xNy44NjJ6bTIyLjYwNiAxODcuMDc5YzkuNDgtNC43MTQgMjcuMTk2LTEyLjY4NiAzMy4xNC4wMTggMi4xOTMgNC42ODIgNC43NjcgMTIuNTk4IDUuOTAyIDE3LjQzMiAxLjYwNSA2LjgyLTEuNzQgMjEuMTU0LTguNzUgMjMuNDQzLTYuMTkxIDIuMDItMTMuNDE2IDEuODk3LTIwLjg3NC40LS44NzgtLjczLTEuODU2LTIuMDA0LTIuNTQtMy4zMzItNS4zMjUtLjIwNi0xMC4zMTEuMjg3LTE0LjUxNyAyLjQ3NS4zOTkgMy45MzgtMi4yNjUgNC41Ny00Ljc2MyA1LjM4Mi0xLjg1MSA3LjM0IDMuNzA0IDE2LjkyNiAyLjM3NCAyMy42Mi0uOTQ5IDQuNzY4LTYuODE1IDUuNTA2LTExLjEyNyA2LjM5Ny0uMTQyIDIuNjUuMTg4IDQuODYxLjQ4MiA3LjEwNC0uOTg2IDMuNjMyLTUuNDA5IDUuNzAxLTkuNTk5IDYuMjA3LTEzLjc4NiAxLjY1OC0zNC43MTggMi40MDMtNDcuOTgtMi4zNjYtMy43LTkuMDc2LTYuNjE1LTIwLjExNi05LjY5Ny0zMC40OC0xMi45MzMgMS4zODEtMjMuMzk0LTUuNTgtMzMuMjU0LTEwLjE0MS0zLjQxNC0xLjU4My04LjEzNy0yLjQ1NS05LjQxMi01LjE3My0xLjIzNy0yLjYzMS0uNzMtNy42NzQtMS4wMzgtMTIuNDM3LS43ODEtMTIuMTY3LTEuNDUtMjMuOTAyLTQuNjYyLTM2LjM1OC0xLjQ0LTUuNTktMy45NTQtMTAuNTIyLTUuNzA4LTE1LjkwOS0xLjYyMS00Ljk5Mi00LjQ1NC0xMS4xNi01LjE5Mi0xNi4xMzgtMS4wOTUtNy4zNzggNS44NTItNy43ODkgMTAuMjkzLTEwLjk4NSA2Ljg2OC00Ljk0NCAxMi4yNTgtNy42NzggMTkuNjk1LTEyLjE0IDIuMjAzLTEuMzIyIDguODQ3LTQuNjY3IDkuNjAyLTYuMjA3IDEuNTAyLTMuMDUzLTIuNTgtNy4zNi0zLjY3LTkuNzU1LTEuNzI1LTMuNzg2LTIuNjI0LTctMi44NzItMTAuNzM3LTYuMjM4LS45ODYtMTAuOTY4LTQuNjk5LTEzLjgyNS04Ljg4Ni00LjcyNi02LjkyOS04LjAwMi0xOS43NDgtMy45MTMtMjkuNDk5LjMyLS43NjggMS45Mi0yLjI3OCAyLjE1Ni0zLjQ1OC40NjUtMi4zMjItLjg3Ni01LjQxLS45NTktNy44OC0uNDMtMTIuNjc1IDIuMTQ0LTIzLjU5NSAxMC42NzYtMjcuNDE2IDMuNDY0LTEzLjc5NyAxNS44Ni0xOC4zODYgMjcuNTQtMjUuMjQ0IDQuMzY3LTIuNTYyIDkuMTc5LTQuMiAxNC4xNDktNi4wMyAxNy44My02LjU2MiA0NS4xODgtNS4zMjYgNTkuOTg1IDUuODY1IDYuMjc1IDQuNzQ3IDE2LjMwNSAxNC43NjcgMTkuODkyIDIyLjAyMiA5LjQ3NSAxOS4xNTMgOC44MDMgNTEuMTYzIDIuMTc1IDc0LjQ2My0uODkgMy4xMjgtMi4xODIgNy43MjctMy45ODcgMTEuNDg0LTEuMjU4IDIuNjI0LTUuMTY4IDcuODc0LTQuNjk0IDEwLjE5LjQ4OSAyLjM5NSA4LjkxNSA4Ljc5MyAxMC43MjEgMTAuNTM1IDMuMjU0IDMuMTM5IDkuNDM1IDcuMzA0IDkuOTM1IDExLjI2NS41NCA0LjIxNS0xLjg1NyA5Ljk4MS0zLjA3IDE0LjA0OC00LjA1NyAxMy41NzUtOC4wMTYgMjYuMTItMTIuNjE1IDM4LjIyMSIgZmlsbD0iIzIzMUYyMCIvPjxwYXRoIGQ9Ik05Mi4wOTMgMTA4LjI3NWMuNTEzLS42ODUgMy4zNDItMS43MjUgNy4yOTguMTggMCAwLTQuNjkuNzgyLTQuMyA4LjYwMWwtMS45NTMtLjM5MXMtMi4wMi03LjA5LTEuMDQ2LTguMzkiIGZpbGw9IiNGN0U0Q0QiLz48cGF0aCBkPSJNMTI2LjM1OCAxNzUuNDc5YTIuMTUgMi4xNSAwIDExLTQuMy0uMDAyIDIuMTUgMi4xNSAwIDAxNC4zLjAwMm0yLjE0OCA5Ljk2NWEyLjE1IDIuMTUgMCAxMS00LjI5OS0uMDAyIDIuMTUgMi4xNSAwIDAxNC4zLjAwMiIgZmlsbD0iIzFEMTkxOSIvPjxwYXRoIGQ9Ik0xNy44MzYgMTc3LjM3OWg2OC40NDZjLjU0MyAwIC45ODMuNDQuOTgzLjk4MnYyLjE1NWMwIC41NDMtLjQ0Ljk4My0uOTgzLjk4M0gxNy44MzdhLjk4My45ODMgMCAwMS0uOTgyLS45ODN2LTIuMTU1YzAtLjU0Mi40NC0uOTgyLjk4Mi0uOTgyem04MS4yNzQgMGg2MC41ODFjLjU0MyAwIC45ODMuNDQuOTgzLjk4MnYyLjE1NWMwIC41NDMtLjQ0Ljk4My0uOTgzLjk4M0g5OS4xMWEuOTgzLjk4MyAwIDAxLS45ODItLjk4M3YtMi4xNTVjMC0uNTQyLjQ0LS45ODIuOTgyLS45ODJ6Ii8+PHBhdGggZD0iTTE3LjgzNiAxNzUuMzc5SDg0LjQxYy41NDIgMCAuOTgzLjQ0Ljk4My45ODJ2Mi4xNTRjMCAuNTQyLS40NC45ODMtLjk4My45ODNIMTcuODM2YS45ODMuOTgzIDAgMDEtLjk4Mi0uOTgzdi0yLjE1NWMwLS41NDEuNDQtLjk4MS45ODItLjk4MXptODcuMjY2IDBoNTQuNTljLjU0MiAwIC45ODIuNDQuOTgyLjk4MnYyLjE1NGMwIC41NDItLjQ0Ljk4My0uOTgzLjk4M2gtNTQuNTg4YS45ODMuOTgzIDAgMDEtLjk4My0uOTgzdi0yLjE1NWMwLS41NDEuNDQtLjk4MS45ODMtLjk4MXoiLz48L3N2Zz4=;" vertex="1" parent="1">
          <mxGeometry x="210" y="95" width="64.07" height="100" as="geometry" />
        </mxCell>
        <mxCell id="-CglULp98W2lR8GV_lNq-8" value="Pull Code" style="edgeStyle=orthogonalEdgeStyle;rounded=0;orthogonalLoop=1;jettySize=auto;html=1;fontFamily=Verdana;fontSize=13;" edge="1" parent="1" source="-CglULp98W2lR8GV_lNq-2" target="-CglULp98W2lR8GV_lNq-1">
          <mxGeometry relative="1" as="geometry" />
        </mxCell>
        <mxCell id="-CglULp98W2lR8GV_lNq-2" value="" style="shape=image;verticalLabelPosition=bottom;labelBackgroundColor=default;verticalAlign=top;aspect=fixed;imageAspect=0;editableCssRules=.*;image=data:image/svg+xml,PHN2ZyB2aWV3Qm94PSIwIDAgMTAyNCA5OTguNzM4MjIwMjE0ODQzOCIgeG1sbnM9Imh0dHA6Ly93d3cudzMub3JnLzIwMDAvc3ZnIiBmaWxsPSJub25lIiB3aWR0aD0iMTAyNCIgaGVpZ2h0PSI5OTguNzM4MjIwMjE0ODQzOCI+PHBhdGggZmlsbD0iIzFCMUYyMyIgZD0iTTUxMiAwQzIyOS4xMiAwIDAgMjI5LjEyIDAgNTEyYzAgMjI2LjU2IDE0Ni41NiA0MTcuOTIgMzUwLjA4IDQ4NS43NiAyNS42IDQuNDggMzUuMi0xMC44OCAzNS4yLTI0LjMyIDAtMTIuMTYtLjY0LTUyLjQ4LS42NC05NS4zNi0xMjguNjQgMjMuNjgtMTYxLjkyLTMxLjM2LTE3Mi4xNi02MC4xNi01Ljc2LTE0LjcyLTMwLjcyLTYwLjE2LTUyLjQ4LTcyLjMyLTE3LjkyLTkuNi00My41Mi0zMy4yOC0uNjQtMzMuOTIgNDAuMzItLjY0IDY5LjEyIDM3LjEyIDc4LjcyIDUyLjQ4IDQ2LjA4IDc3LjQ0IDExOS42OCA1NS42OCAxNDkuMTIgNDIuMjQgNC40OC0zMy4yOCAxNy45Mi01NS42OCAzMi42NC02OC40OC0xMTMuOTItMTIuOC0yMzIuOTYtNTYuOTYtMjMyLjk2LTI1Mi44IDAtNTUuNjggMTkuODQtMTAxLjc2IDUyLjQ4LTEzNy42LTUuMTItMTIuOC0yMy4wNC02NS4yOCA1LjEyLTEzNS42OCAwIDAgNDIuODgtMTMuNDQgMTQwLjggNTIuNDggNDAuOTYtMTEuNTIgODQuNDgtMTcuMjggMTI4LTE3LjI4IDQzLjUyIDAgODcuMDQgNS43NiAxMjggMTcuMjggOTcuOTItNjYuNTYgMTQwLjgtNTIuNDggMTQwLjgtNTIuNDggMjguMTYgNzAuNCAxMC4yNCAxMjIuODggNS4xMiAxMzUuNjggMzIuNjQgMzUuODQgNTIuNDggODEuMjggNTIuNDggMTM3LjYgMCAxOTYuNDgtMTE5LjY4IDI0MC0yMzMuNiAyNTIuOCAxOC41NiAxNiAzNC41NiA0Ni43MiAzNC41NiA5NC43MiAwIDY4LjQ4LS42NCAxMjMuNTItLjY0IDE0MC44IDAgMTMuNDQgOS42IDI5LjQ0IDM1LjIgMjQuMzJDODc3LjQ0IDkyOS45MiAxMDI0IDczNy45MiAxMDI0IDUxMiAxMDI0IDIyOS4xMiA3OTQuODggMCA1MTIgMHoiIGNsaXAtcnVsZT0iZXZlbm9kZCIgZmlsbC1ydWxlPSJldmVub2RkIi8+PC9zdmc+;" vertex="1" parent="1">
          <mxGeometry x="20" y="100" width="92.25" height="90" as="geometry" />
        </mxCell>
        <mxCell id="-CglULp98W2lR8GV_lNq-10" value="build,test" style="edgeStyle=orthogonalEdgeStyle;rounded=0;orthogonalLoop=1;jettySize=auto;html=1;fontFamily=Verdana;fontSize=14;" edge="1" parent="1" source="-CglULp98W2lR8GV_lNq-3" target="-CglULp98W2lR8GV_lNq-4">
          <mxGeometry relative="1" as="geometry" />
        </mxCell>
        <mxCell id="-CglULp98W2lR8GV_lNq-3" value="" style="shape=image;verticalLabelPosition=bottom;labelBackgroundColor=default;verticalAlign=top;aspect=fixed;imageAspect=0;editableCssRules=.*;image=data:image/svg+xml,PHN2ZyB4bWxucz0iaHR0cDovL3d3dy53My5vcmcvMjAwMC9zdmciIGZpbGw9Im5vbmUiIHZpZXdCb3g9IjUuMDAwMjQ1MDk0Mjk5MzE2IDIzLjAxNzk5OTY0OTA0Nzg1IDUzLjk5OTkzNTE1MDE0NjQ4NCAxNC4yMjA5OTQ5NDkzNDA4MiIgaGVpZ2h0PSIxNzcuNzYyNDM2ODY2NzYwMjUiIHdpZHRoPSI2NzQuOTk5MTg5Mzc2ODMxIj48cGF0aCBmaWxsPSIjQkUyMDJFIiBkPSJNMzEuOTE4IDMwLjEzNnoiLz48cGF0aCBmaWxsPSIjQkUyMDJFIiBkPSJNMzEuOTE4IDMwLjEzNnoiIG9wYWNpdHk9Ii4zNSIvPjxwYXRoIGZpbGw9IiNCRTIwMkUiIGQ9Ik0zMS43MDQgMjkuNjgyYy0uMDAxLjAwMS0uMDAxLjAwMSAwIDBsLjAxNC0uMDEyLjA1NS0uMDU0LS4wNjkuMDY2eiIvPjxwYXRoIGZpbGw9IiNCRTIwMkUiIGQ9Ik0zMS43MDQgMjkuNjgyYy0uMDAxLjAwMS0uMDAxLjAwMSAwIDBsLjAxNC0uMDEyLjA1NS0uMDU0LS4wNjkuMDY2eiIgb3BhY2l0eT0iLjM1Ii8+PHBhdGggZmlsbD0iI0JFMjAyRSIgZD0iTTMxLjg3OCAzMC4xNzljLS4wMTQuMDE0LS4wMy4wMjctLjA0NS4wNDMuMDE0LS4wMTQuMDI4LS4wMjkuMDQ1LS4wNDN6Ii8+PHBhdGggZmlsbD0iI0JFMjAyRSIgZD0iTTMxLjg3OCAzMC4xNzljLS4wMTQuMDE0LS4wMy4wMjctLjA0NS4wNDMuMDE0LS4wMTQuMDI4LS4wMjkuMDQ1LS4wNDN6IiBvcGFjaXR5PSIuMzUiLz48cGF0aCBmaWxsPSIjQkUyMDJFIiBkPSJtMzEuNzA0IDI5LjY4My4wMTUtLjAxMy0uMDE1LjAxM3oiLz48cGF0aCBmaWxsPSIjQkUyMDJFIiBkPSJtMzEuNzA0IDI5LjY4My4wMTUtLjAxMy0uMDE1LjAxM3oiIG9wYWNpdHk9Ii4zNSIvPjxwYXRoIGZpbGw9IiMwMDAwMDAiIGQ9Ik03LjcxMyAyMy4wMTloMi42NjJjLjE4NSAwIC4zMTYuMDM4LjM5Mi4xMTRhLjM0OC4zNDggMCAwIDEgLjExNC4yNDVjLjAxMS4wOTguMDI3LjE5Ni4wNS4yOTRsLjA2NS41MzljLjAzMi4xNzQuMDYuMzUzLjA4MS41MzkuMTIuNjg1LjIxOCAxLjM4Mi4yOTQgMi4wOS4wODcuNzA3LjE5IDEuNDEuMzEgMi4xMDYuMDQ0LjIxOC4wNzcuNDQxLjA5OC42Ny4wMjIuMjI4LjA1NS40NTEuMDk4LjY3bC4wMzMuMTYyYy4wMS4wNTUuMDM4LjA5OC4wODIuMTMxLjAyMS4wMS4wMzguMDIyLjA0OS4wMzMuMDIxLjAxLjA0OS4wMDUuMDgxLS4wMTcuMDg3LS4wMjEuMTU4LS4wODcuMjEzLS4xOTYuMDU0LS4xMDguMTA4LS4yMDYuMTYzLS4yOTQuMTMtLjI1LjI1Ni0uNDk1LjM3Ni0uNzM0LjEyLS4yNS4yNS0uNTAxLjM5MS0uNzUyLjM0OS0uNjYzLjY5Ny0xLjMyOCAxLjA0NS0xLjk5MmExNzguODE3IDE3OC44MTcgMCAwIDAgMS4zMjMtMi41M2MuMDk4LS4xNzUuMTktLjM1LjI3OC0uNTIzLjA0My0uMDg3LjA5Mi0uMTc0LjE0Ny0uMjYyYS42MTUuNjE1IDAgMCAxIC4yMjgtLjIxMi40MzguNDM4IDAgMCAxIC4yNjItLjA4MUgxOS4zNTZjLjExIDAgLjE4NS4wMjEuMjI5LjA2NS4xMDkuMDY1LjE0MS4xOS4wOTguMzc1LS4wMzMuMTc1LS4wNjYuMzU0LS4wOTguNTRsLS40OSAyLjQ0OS0xLjIyNSA2LjA3NC0uMjc3IDEuNDJjLS4wMjIuMTItLjA1LjI0LS4wODIuMzZhLjQ0Ny40NDcgMCAwIDEtLjE2My4yNDUuNTQ1LjU0NSAwIDAgMS0uMjYyLjA5OGgtMS41NWExLjk1NyAxLjk1NyAwIDAgMC0uMjEzLS4wNDljLS4wNTUtLjAxLS4wOTgtLjA0OS0uMTMtLjExNGEuMzI3LjMyNyAwIDAgMS0uMDMzLS4yMTJsLjA2NS0uMjc4LjE2My0uODMzLjg1LTQuMTk3Yy4wMjEtLjE1Mi4wNDMtLjI5My4wNjUtLjQyNC4wMzItLjE0Mi4wNi0uMjgzLjA4MS0uNDI1bC4wNjYtLjI2MWExLjI4IDEuMjggMCAwIDAgLjAzMi0uMjc4LjkyOS45MjkgMCAwIDEgMC0uMjQ1Yy4wMjItLjA4Ny4wMDYtLjE0MS0uMDQ5LS4xNjMtLjAzMi0uMDEtLjA2LS4wMDUtLjA4MS4wMTdsLS4wNS4wNDlhLjcxNS43MTUgMCAwIDAtLjE0Ni4xNjNsLS4wOTguMTYzYy0uMDk4LjE2My0uMTk2LjMzMi0uMjk0LjUwNmE2LjI4IDYuMjggMCAwIDEtLjI5NC41MjNsLS4wOTguMTk2YS44MjUuODI1IDAgMCAxLS4wOTguMTk2IDguNDgzIDguNDgzIDAgMCAwLS4yNDUuNDI0IDQuMDQgNC4wNCAwIDAgMS0uMjI5LjQyNS4zNjEuMzYxIDAgMCAwLS4wNDkuMTE0LjQxNC40MTQgMCAwIDEtLjA0OS4wOTggMi44NzggMi44NzggMCAwIDAtLjE4LjMxIDEuNjIgMS42MiAwIDAgMS0uMTc5LjMyNyAyLjg4IDIuODggMCAwIDAtLjE4LjMxIDIuMjk4IDIuMjk4IDAgMCAxLS4xNjMuMzI3Yy0uMTk2LjMxNi0uMzc1LjYzNy0uNTM5Ljk2M2EzOS45OSAzOS45OSAwIDAgMS0uNTA2Ljk0Ny4yNTYuMjU2IDAgMCAwLS4wNjUuMDk4YzAgLjAzMy0uMDE3LjA2Ni0uMDUuMDk4LS4wNzUuMTItLjE0Ni4yNDUtLjIxMS4zNzYtLjA1NS4xMi0uMTIuMjQtLjE5Ni4zNmEzLjYyIDMuNjIgMCAwIDEtLjEzMS4yMTEuNzEuNzEgMCAwIDEtLjE0Ny4xNjQuNTE1LjUxNSAwIDAgMS0uMTguMDgxLjkyLjkyIDAgMCAwLS4yMTIuMDMzaC0uMzc2Yy0uMDc2IDAtLjE2OC4wMDUtLjI3Ny4wMTZoLS4zMWMtLjA5OCAwLS4xOS0uMDA1LS4yNzgtLjAxNi0uMDg3LS4wMS0uMTQ3LS4wMzMtLjE4LS4wNjVhLjM3My4zNzMgMCAwIDEtLjE0Ny0uMTggMS41MSAxLjUxIDAgMCAwLS4wNjUtLjI2MSA0Ljg0OCA0Ljg0OCAwIDAgMS0uMDQ5LS4zOTIgMi40NDQgMi40NDQgMCAwIDAtLjA2NS0uNDA4bC0uMDE3LS4xNDdhMi40NTcgMi40NTcgMCAwIDEtLjA2NS0uNDA5IDIuNDgxIDIuNDgxIDAgMCAwLS4wNjUtLjQyNHYtLjA4MmEuMzA4LjMwOCAwIDAgMC0uMDE2LS4wOTggMS40MjcgMS40MjcgMCAwIDEtLjA2Ni0uMzEgMy4zNzYgMy4zNzYgMCAwIDAtLjA0OS0uMzI2di0uMDgyYS4xODIuMTgyIDAgMCAwLS4wMTYtLjA4MiAzLjM4IDMuMzggMCAwIDEtLjA1LS4zMjZjMC0uMTEtLjAxNS0uMjE4LS4wNDgtLjMyN2ExMS4yNTMgMTEuMjUzIDAgMCAxLS4xMTQtLjY4NiA3LjI2OCA3LjI2OCAwIDAgMC0uMDk4LS43MDJjLS4wNDQtLjI3Mi0uMDgyLS41NS0uMTE1LS44MzNhNC4wMDYgNC4wMDYgMCAwIDAtLjE0Ny0uODE2IDEuNDM2IDEuNDM2IDAgMCAwLS4wOTgtLjM3Ni4yNTYuMjU2IDAgMCAwLS4wNjUtLjA0OWMtLjAxLS4wMjItLjAzMy0uMDIyLS4wNjUgMGEuMjUuMjUgMCAwIDAtLjEzLjE2My45MDMuOTAzIDAgMCAxLS4wNjYuMjMuNjUyLjY1MiAwIDAgMC0uMDgyLjI0NGwtLjAzMy4yNDVjLS4wMjEuMTItLjA0OC4yNC0uMDgxLjM2LS4wMjIuMTE5LS4wNS4yMzktLjA4Mi4zNThsLS44NjUgNC4zNDQtLjE2NC44LS4wNjUuMjYxYS4zNTIuMzUyIDAgMCAxLS4wOTguMjEzYy0uMDU0LjA3Ni0uMTQ3LjEyNS0uMjc3LjE0N2EuODg3Ljg4NyAwIDAgMS0uMjQ1LjAzMiAyLjEwMiAyLjEwMiAwIDAgMC0uMjYyLS4wMTZINS4yOTdhLjM3LjM3IDAgMCAxLS4yMjktLjA5OGMtLjA1NC0uMDU0LS4wNzYtLjEzNi0uMDY1LS4yNDVsLjA2NS0uMzYuMjc4LTEuNDM2TDYuNTcgMjYuNDNsLjQ1OC0yLjI4NmMuMDEtLjA2NS4wMjEtLjE0MS4wMzItLjIyOGExMC44NTIgMTAuODUyIDAgMCAxIC4xMy0uNTIzIDIuMTggMi4xOCAwIDAgMSAuMDgyLS4xOTYuNTUuNTUgMCAwIDEgLjI5NC0uMTYzYy4wMzMtLjAxMS4wNTUtLjAxMS4wNjYgMGEuMjcxLjI3MSAwIDAgMCAuMDgxLS4wMTZ6TTI3LjIzMSAzNC4wMDhhMiAyIDAgMCAxLS4wMzMuMzYuMzA2LjMwNiAwIDAgMS0uMjEyLjI0NC42MTcuNjE3IDAgMCAxLS4yNDUuMDVoLTEuNDM3YS4zMjYuMzI2IDAgMCAxLS4xOTYtLjA4Mi4zMTIuMzEyIDAgMCAxLS4xMy0uMTguNDQ1LjQ0NSAwIDAgMC0uMTE1LS4yMTIuMjA1LjIwNSAwIDAgMC0uMDgxLS4wNWMtLjAyMi0uMDItLjA2LS4wMjYtLjExNS0uMDE1YS45MDEuOTAxIDAgMCAwLS4xOC4wODFjLS4wNTQuMDMzLS4xMDguMDYtLjE2My4wODJhMS4zMjMgMS4zMjMgMCAwIDEtLjIxMi4xMTQgMy40NzkgMy40NzkgMCAwIDEtLjY4Ni4yNjFjLS4xNjMuMDMzLS4zMjYuMDcxLS40OS4xMTVhMS4wMTIgMS4wMTIgMCAwIDEtLjI0NS4wMzJsLS4yMTIuMDMzaC0uMDk4YS4zMDguMzA4IDAgMCAxLS4wOTguMDE2aC0uMThhLjgyMi44MjIgMCAwIDEtLjMyNiAwaC0uMTQ3YS44MzEuODMxIDAgMCAwLS4yMjktLjAzMi40MDEuNDAxIDAgMCAxLS4xOTUtLjAxN2wtLjI5NC0uMDY1YS42Ny42NyAwIDAgMS0uMjYyLS4wODIgMi4xNDcgMi4xNDcgMCAwIDEtLjcxOC0uNDU3IDEuNTQ2IDEuNTQ2IDAgMCAxLS4zNzYtLjc2NyAxLjYyNCAxLjYyNCAwIDAgMS0uMDQ5LS4yNDVjMC0uMDg3LS4wMDUtLjE4LS4wMTYtLjI3OGEuNDEyLjQxMiAwIDAgMSAwLS4xNjMuNDM2LjQzNiAwIDAgMCAuMDMzLS4xNjNjMC0uMDMzLjAwNS0uMDk4LjAxNi0uMTk2LjAyMi0uMTEuMDQzLS4xODYuMDY1LS4yMjlhMS4yNSAxLjI1IDAgMCAwIC4wODItLjI3OGwuMTYzLS4zNTlhMi43NzQgMi43NzQgMCAwIDEgLjk4LTEuMDYxYy4yNzItLjE2NC42MS0uMzA1IDEuMDEyLS40MjUuMTUzLS4wNTQuMzA1LS4wOTIuNDU3LS4xMTRhOC42NiA4LjY2IDAgMCAwIC40NzQtLjA4MmMuMDg3LS4wMjEuMTgtLjAzMi4yNzgtLjAzMi4xMDktLjAxMS4yMTItLjAyOC4zMS0uMDVhLjU0NS41NDUgMCAwIDEgLjIyOS0uMDE2Yy4wNzYgMCAuMTYzLS4wMS4yNi0uMDMyYS44MjguODI4IDAgMCAxIC4yMy0uMDMzYy4wNzYgMCAuMTU3LS4wMTEuMjQ0LS4wMzMuMjQtLjA1NC40NTgtLjA5OC42NTMtLjEzLjIwNy0uMDQ0LjQwMy0uMTQyLjU4OC0uMjk0LjExLS4wOTguMTk2LS4yMDcuMjYyLS4zMjdhLjI2Ny4yNjcgMCAwIDAgLjAxNi0uMDgxYzAtLjAyMi4wMDUtLjA0NC4wMTYtLjA2Ni4wMjItLjAyMi4wMzMtLjA1NC4wMzMtLjA5OGEuNTEzLjUxMyAwIDAgMSAuMDMzLS4wOTh2LS4yNDVjLS4wNDQtLjMyNi0uMjI5LS41NS0uNTU2LS42N2ExLjI3NyAxLjI3NyAwIDAgMC0uMzQzLS4wNjUgMS42OTEgMS42OTEgMCAwIDAtLjQwOC0uMDE2Yy0uMTQxIDAtLjI4My4wMTEtLjQyNC4wMzMtLjEzLjAyMi0uMjQ1LjA0OS0uMzQzLjA4MWEuNzU3Ljc1NyAwIDAgMC0uMjEyLjA5OCAxLjQzOCAxLjQzOCAwIDAgMC0uNDA4LjI5NC44NTYuODU2IDAgMCAwLS4xNjQuMjEzIDMuNTU0IDMuNTU0IDAgMCAwLS4xOTYuMzEuNDEzLjQxMyAwIDAgMS0uMjc3LjE5NiAxLjE0IDEuMTQgMCAwIDEtLjI3OC4wMzJIMjEuNDAyYy0uMDU1IDAtLjExNS4wMDYtLjE4LjAxN2EuNDI0LjQyNCAwIDAgMS0uMTMtLjAxN2gtLjE0OGEuMTgyLjE4MiAwIDAgMC0uMDgxLS4wMTYuMTEuMTEgMCAwIDEtLjA4Mi0uMDMyYy0uMDc2LS4wMjItLjEyLS4wOTMtLjEzLS4yMTMgMC0uMDU0LjAxLS4xMDkuMDMyLS4xNjNhNC41MzQgNC41MzQgMCAwIDEgLjIyOS0uNDczYy4wNjUtLjExLjEzLS4yMDcuMTk1LS4yOTVsLjEzMS0uMTYzLjEzLS4xNjNjLjExLS4xMi4yNC0uMjM0LjM5My0uMzQzYS4zMjMuMzIzIDAgMCAwIC4xMTQtLjA4MmMuMDY1LS4wNDMuMTItLjA4MS4xNjMtLjExNGEyLjY3IDIuNjcgMCAwIDEgLjE4LS4wOThjLjIwNy0uMTIuNDE5LS4yMTIuNjM3LS4yNzguMjI4LS4wNzYuNDU3LS4xNDcuNjg2LS4yMTJhMi44NyAyLjg3IDAgMCAxIC40MjQtLjA2NWMuMTQyLS4wMTEuMjg5LS4wMzMuNDQxLS4wNjZhLjU3NS41NzUgMCAwIDEgLjE5NiAwYy4wODcuMDExLjE0Ny4wMDYuMTgtLjAxNi40NDYtLjAxLjg2NS4wMDYgMS4yNTcuMDUuNDAzLjA0My43NTYuMTI0IDEuMDYxLjI0NC4zMTYuMTIuNTcyLjI4My43NjguNDkuMjA3LjE5Ni4zNDMuNDUyLjQwOC43NjcuMDMzLjE4NS4wMzMuMzk4IDAgLjYzNy0uMDMzLjI0LS4wNzYuNDg1LS4xMy43MzVsLS43MzUgMy42NDJjLS4wMzMuMjA2LS4wNzEuNDE5LS4xMTUuNjM2LS4wNDMuMjA3LS4wNi4zOTgtLjA0OS41NzIgMCAuMDMzLS4wMDUuMDctLjAxNi4xMTR2LjA5OHptLTEuODk0LTIuNTE1YS44NjUuODY1IDAgMCAwIC4wNDktLjE4Yy4wMS0uMDc1LjAxNi0uMTQuMDE2LS4xOTUgMC0uMDY1LjAwNi0uMTI1LjAxNi0uMThhLjEyMi4xMjIgMCAwIDAtLjA0OS0uMTNjLS4wNDMtLjA0NC0uMTItLjA2Ni0uMjI4LS4wNjZhMS41OCAxLjU4IDAgMCAwLS4xMTQuMDMzLjcuNyAwIDAgMC0uMTMxLjAxNiAxLjYyNSAxLjYyNSAwIDAgMS0uMjQ1LjA1Yy0uMDg3LjAxLS4xOC4wMjYtLjI3OC4wNDhhLjQ5Ni40OTYgMCAwIDEtLjE0Ny4wMTdjLS4xNTIuMDMyLS4yOTkuMDU0LS40NC4wNjUtLjE0Mi4wMS0uMjg0LjAzOC0uNDI1LjA4MmwtLjI2MS4wNjVhLjkwNy45MDcgMCAwIDAtLjIyOS4wNjVjLS4yNS4wOTgtLjQ3My4yNDUtLjY3LjQ0MS0uMTk1LjE5Ni0uMzEuNDY4LS4zNDIuODE3YS43NTMuNzUzIDAgMCAwIC4wOTguNDU3Yy4wNDMuMTIuMTM2LjIxNy4yNzcuMjk0LjE0Mi4wNjUuMy4xMTQuNDc0LjE0Ny4xNzQuMDMyLjM1OS4wNDMuNTU1LjAzMmEzLjMxIDMuMzEgMCAwIDAgLjU4OC0uMTE0Yy4zMDUtLjA4Ny41NTUtLjIyMy43NTEtLjQwOC4yMDctLjE5Ni4zODEtLjQzNi41MjMtLjcxOS4wMzItLjA3Ni4wNi0uMTUyLjA4MS0uMjI4LjAyMi0uMDg3LjA1NS0uMTc1LjA5OC0uMjYybC4wMzMtLjE0NnpNNDYuMTY5IDMwLjM2N2EuOC44IDAgMCAxLS4wNjUuMjkzYy0uMDQ0LjExLS4wOTguMTgtLjE2NC4yMTNhLjU3NC41NzQgMCAwIDEtLjI0NS4wOThsLS4zNTkuMDMyaC0uMzc1YTMuNjMxIDMuNjMxIDAgMCAwLS4zMjctLjAxNmgtNC4yMTNhLjUwMy41MDMgMCAwIDAtLjM3Ni4xNjMuOTc5Ljk3OSAwIDAgMC0uMDk4LjEzMS4zMTUuMzE1IDAgMCAwLS4wNDkuMTYzYy4wMTEuMDY2LjAxMS4xMzEgMCAuMTk2IDAgLjA1NS4wMDYuMTE1LjAxNy4xOC4wMzIuMjYxLjA5Mi40NzkuMTguNjUzLjA5Ny4xNjMuMjM5LjMxLjQyNC40NDFhLjcyLjcyIDAgMCAwIC4yNDUuMTE0Yy4wOTguMDExLjE5LjAzMy4yNzcuMDY2YTIuMTQgMi4xNCAwIDAgMCAuNzUyLjAzMmguMTQ3YTE0LjMgMTQuMyAwIDAgMCAuMzEtLjA2NWwuMjk0LS4wOThjLjEyLS4wNTUuMjU2LS4xMjUuNDA4LS4yMTIuMTUzLS4wODcuMjcyLS4xNzQuMzYtLjI2Mi4wNjUtLjA3Ni4xMzUtLjE0Ny4yMTItLjIxMmEuNjkuNjkgMCAwIDEgLjI0NS0uMTYzLjg3NS44NzUgMCAwIDEgLjQyNC0uMDY2SDQ0Ljg2M2EuMzguMzggMCAwIDEgLjE5Ni4wMTdoLjE2M2EuNTcyLjU3MiAwIDAgMSAuMjEyLjA4MmMuMDMzLjAyMS4wNDQuMDcuMDMzLjE0NmEuMzc0LjM3NCAwIDAgMS0uMDUuMTk2Yy0uMDg2LjE1My0uMTc5LjI4OS0uMjc3LjQwOS0uMDg3LjEyLS4xODUuMjQtLjI5NC4zNTktLjMwNS4zNi0uNjMxLjY0OC0uOTguODY1YTUuMzg4IDUuMzg4IDAgMCAxLTEuMjU3LjU1NmMtLjEzLjA0My0uMjU2LjA3LS4zNzUuMDgxLS4xMi4wMTEtLjI1LjAzMy0uMzkyLjA2NmEuMzM0LjMzNCAwIDAgMS0uMTQ3IDAgLjUzNS41MzUgMCAwIDAtLjEzLjAxNmgtLjE4YS40MDMuNDAzIDAgMCAxLS4xOTcuMDE2LjkxNi45MTYgMCAwIDEtLjE4LS4wMTYuOC44IDAgMCAwLS4yMjggMCAuNDguNDggMCAwIDEtLjIxMi0uMDE3LjQ4LjQ4IDAgMCAwLS4xOC0uMDMyLjM2NC4zNjQgMCAwIDEtLjE2My0uMDMzIDQuMjYgNC4yNiAwIDAgMS0uMzYtLjA4MS44NjguODY4IDAgMCAxLS4yOTMtLjExNSA1LjcyIDUuNzIgMCAwIDAtLjMxLS4xMTQgMS40ODUgMS40ODUgMCAwIDEtLjI2Mi0uMTQ3IDMuNjggMy42OCAwIDAgMS0uNzgzLS43NTEgMy4wNyAzLjA3IDAgMCAxLS41MjMtMS4zNzJjMC0uMTMtLjAxNi0uMjYxLS4wNDktLjM5MnYtLjExNGEuNTM2LjUzNiAwIDAgMCAuMDE2LS4xM2MtLjAxLS4xMzEtLjAxLS4yNzMgMC0uNDI1bC4wNjYtLjQ1N2EuOTE2LjkxNiAwIDAgMCAuMDE2LS4xOC44NjUuODY1IDAgMCAxIC4wNDktLjE4bC4wNDktLjE5Ni4xMy0uMzkyYy4wNzctLjE4NS4xNDgtLjM2NC4yMTMtLjUzOS4wNjUtLjE3NC4xNDctLjMzNy4yNDUtLjQ5LjY5Ny0xLjEzMiAxLjY1NC0xLjkzMiAyLjg3NC0yLjQuMTYzLS4wNjUuMzI2LS4xMDkuNDktLjEzLjE2My0uMDMzLjMzNy0uMDcxLjUyMi0uMTE1LjA4Ny0uMDEuMTY5LS4wMTYuMjQ1LS4wMTYuMDc2IDAgLjE1OC0uMDA2LjI0NS0uMDE2LjU1NS0uMDExIDEuMDE4LjA1NCAxLjM4OC4xOTYuMzcuMTMuNjkxLjMwNC45NjQuNTIyLjA4Ny4wNjYuMTY4LjE0Mi4yNDQuMjI5LjA4Ny4wNzYuMTU4LjE1OC4yMTMuMjQ1LjAyMi4wNTQuMDYuMDk4LjExNC4xMy4wNjUuMTIuMTIuMjQ1LjE2My4zNzYuMDU1LjEyLjExNS4yNDUuMTguMzc2LjAzMy4wOTguMDU0LjIuMDY1LjMxLjAyMi4wOTguMDQ0LjIwNy4wNjYuMzI2LjAyMS4xNDIuMDMyLjI4OS4wMzIuNDQxbC4wMzMuNDU3YzAgLjA4OC0uMDE2LjE4Ni0uMDUuMjk0YS44MS44MSAwIDAgMC0uMDE1LjI3OGwtLjAzMy4xOHptLTIuMjctLjk2NGMuMDk4LS4xMDkuMTMtLjI0LjA5OC0uMzkyYTM5LjY3MiAzOS42NzIgMCAwIDAtLjA0OS0uMzU5IDEuMjggMS4yOCAwIDAgMC0uNDczLS42N2MtLjIxOC0uMTYzLS41NS0uMjUtLjk5Ny0uMjZhLjEzNy4xMzcgMCAwIDEtLjExNC4wMTYuMjAzLjIwMyAwIDAgMC0uMTE0IDBjLS4wNjUuMDIxLS4xMy4wMzgtLjE5Ni4wNDlhLjQ3OS40NzkgMCAwIDAtLjE4LjAzMiAyLjI4MiAyLjI4MiAwIDAgMC0xLjM1NSAxLjA3OC43NTIuNzUyIDAgMCAwLS4wOTguMjEyLjYxNi42MTYgMCAwIDAtLjAzMy4xOTZjMCAuMDY2LjAyOC4xMi4wODIuMTYzLjA3Ni4wNTUuMTkuMDgyLjM0My4wODJINDMuNTRjLjE3NC0uMDEuMjk0LS4wNi4zNi0uMTQ3ek01My4yMSAyNi4wMjNjLjY1NC0uMDIyIDEuMTc2LjA3IDEuNTY4LjI3OC40MDMuMjA2LjY4Ni41MTEuODUuOTE0LjA1NC4xMi4wODYuMjUuMDk3LjM5Mi4wMjIuMTMuMDM4LjI2Ny4wNS40MDhhLjkyLjkyIDAgMCAxIDAgLjI0NS44MDMuODAzIDAgMCAwIDAgLjIyOWMtLjAyMy4wNjUtLjAyOC4xMDktLjAxNy4xM2EzLjc5IDMuNzkgMCAwIDEtLjA2Ni40NzRjLS4wMzIuMTYzLS4wNjUuMzIxLS4wOTcuNDc0bC0uMjc4IDEuNDUzLS41MzkgMi42NDVjLS4wNDMuMjA3LS4wODcuNDA4LS4xMy42MDQtLjA0NC4xODUtLjE0OC4zMDUtLjMxLjM2YS43MjYuNzI2IDAgMCAxLS4yMy4wMzJoLTEuMTQzYy0uMTMgMC0uMjQ0LS4wMDUtLjM0Mi0uMDE2YS4zMDguMzA4IDAgMCAxLS4yMTMtLjE0Ny40MzUuNDM1IDAgMCAxLS4wMzItLjI0NWMuMDIyLS4xMDkuMDQzLS4yMjMuMDY1LS4zNDNsLjIyOS0xLjE0My40OS0yLjQzM2MuMDc2LS40MDMuMTMtLjc3My4xNjMtMS4xMS4wNDMtLjM0OS4wMDUtLjY0My0uMTE0LS44ODItLjExLS4yMTgtLjMtLjM3LS41NzItLjQ1N2EuNDguNDggMCAwIDAtLjE4LS4wMzMuNDM3LjQzNyAwIDAgMS0uMTYzLS4wMzMuNjg0LjY4NCAwIDAgMC0uMjEyIDAgLjc3NS43NzUgMCAwIDAtLjE4LjAxNy43MDguNzA4IDAgMCAxLS4xMy4wMTYuMzA4LjMwOCAwIDAgMC0uMDk5LjAxNiAyLjI2OCAyLjI2OCAwIDAgMC0uNjUzLjI2MmMtLjQwMi4yNS0uNjg1LjYxNS0uODQ5IDEuMDk0YTE1LjE1MiAxNS4xNTIgMCAwIDAtLjQwOCAxLjYxNmwtLjQwOCAyLjA0MS0uMTk2Ljk5Ni0uMDY2LjI5NGEuNzIuNzIgMCAwIDEtLjA5Ny4yNDUuNDQzLjQ0MyAwIDAgMS0uMzEuMjEzYy0uMTIuMDIxLS4yNjcuMDMyLS40NDIuMDMyaC0uODE2Yy0uMTIgMC0uMjQtLjAwNS0uMzYtLjAxNnMtLjE5NS0uMDUtLjIyOC0uMTE0Yy0uMDY1LS4wOTgtLjA3Ni0uMjQtLjAzMy0uNDI1LjA0NC0uMTg1LjA4Mi0uMzYuMTE1LS41MjNsLjQ0LTIuMjIuNzItMy41OTMuMTc5LS44MzNjLjAyMi0uMTIuMDQzLS4yMjguMDY1LS4zMjZhLjQ0LjQ0IDAgMCAxIC4xNDctLjI0NWMuMDIyLS4wMzMuMDYtLjA1NS4xMTQtLjA2NWEuOTI3LjkyNyAwIDAgMSAuMTY0LS4wNWguMDgxYS44My44MyAwIDAgMSAuMTYzLS4wMTZINDkuODY0Yy4wODcgMCAuMTY5LjAwNi4yNDUuMDE3LjA4NyAwIC4xNjMuMDEuMjI5LjAzMmEuMTk1LjE5NSAwIDAgMSAuMTE0LjE0Ny43MjQuNzI0IDAgMCAxIC4wMzIuMjI5LjM2NS4zNjUgMCAwIDEtLjAxNi4xMTQuMTUuMTUgMCAwIDAgMCAuMDk4Yy4wMTEuMDU1LjAyMi4wODcuMDMzLjA5OC4wMjIuMDExLjA0OS4wMjcuMDgxLjA1YS4zOTguMzk4IDAgMCAwIC4zMS0uMTE1Yy4wOTktLjA5OC4xOTctLjE3NC4yOTUtLjIyOWE0LjkzNSA0LjkzNSAwIDAgMSAxLjA3Ny0uNTIyYy4xMS0uMDMzLjIxMy0uMDU1LjMxLS4wNjZhNS41NiA1LjU2IDAgMCAwIC4zNi0uMDQ5LjMyOC4zMjggMCAwIDEgLjE0NyAwIC4zNC4zNCAwIDAgMCAuMTMtLjAxNnpNNTcuMjU0IDI2LjAxYy4wMS4wMDkuMDE2LjAyNy4wMTYuMDU2YS4xODcuMTg3IDAgMCAxLS4wMTYuMDc4bC0uMDAzLjAyNmEuMjA4LjIwOCAwIDAgMS0uMDMuMDUuMDg5LjA4OSAwIDAgMS0uMDQyLjAyNS4zOTMuMzkzIDAgMCAxLS4wODIuMDA3IDEuNTExIDEuNTExIDAgMCAwLS4wODgtLjAwM2gtLjA1YS4wNDguMDQ4IDAgMCAxLS4wMjkuMDAzLjAzOC4wMzggMCAwIDAtLjAyNi4wMDNjLS4wMjQuMDA5LS4wNDQuMDMtLjA2Mi4wNjJhLjEwNC4xMDQgMCAwIDAtLjAxMy4wNGwtLjAwNi4wNDUtLjE1Ny43N2EuMTUuMTUgMCAwIDAtLjAwMy4wMy4wNTkuMDU5IDAgMCAxLS4wMDcuMDI2bC0uMDA2LjAyN2E0LjQ2OCA0LjQ2OCAwIDAgMC0uMDA3LjAyYzAgLjAwNi0uMDAzLjAxMS0uMDEuMDE2YS4wNy4wNyAwIDAgMS0uMDQyLjAzNS4xMDUuMTA1IDAgMCAxLS4wNC4wMDdINTYuNDA2Yy0uMDM3IDAtLjA2Mi0uMDA5LS4wNzUtLjAyNi0uMDA3LS4wMTMtLjAxLS4wMjgtLjAwNy0uMDQ2YTEuMjcgMS4yNyAwIDAgMCAuMDEzLS4wNTlsLjE1NC0uNzcuMDA2LS4wMzNhLjA0OC4wNDggMCAwIDAgLjAwMy0uMDNsLjAwNy0uMDQ1Yy4wMDItLjAzNS0uMDA5LS4wNTctLjAzMy0uMDY2YS4xNjcuMTY3IDAgMCAwLS4wODgtLjAxM2MtLjAzNy4wMDMtLjA3LjAwNC0uMDk4LjAwNGEuMTczLjE3MyAwIDAgMC0uMDMyLjAwMy4wNzIuMDcyIDAgMCAxLS4wMjMtLjAwM2MtLjAxLS4wMDUtLjAxNy0uMDA2LS4wMjMtLjAwNGEuMDYuMDYgMCAwIDEtLjAyLS4wMDMuMDQ5LjA0OSAwIDAgMS0uMDMtLjA1Mi44My44MyAwIDAgMSAuMDItLjEyLjIyNi4yMjYgMCAwIDEgLjAxNy0uMDM0LjA1My4wNTMgMCAwIDEgLjAyNi0uMDIzLjIzNy4yMzcgMCAwIDEgLjAzMi0uMDE2Yy4wMDctLjAwMi4wMTEtLjAwMi4wMTQgMCAuMDA0IDAgLjAxIDAgLjAxNi0uMDAzaC44NzJjLjAyIDAgLjAzOC4wMDEuMDU1LjAwMy4wMTggMCAuMDMyLjAwNS4wNDMuMDEzem0xLjczNy4wMDdhLjA3LjA3IDAgMCAxIC4wMDcuMDUyLjk1Mi45NTIgMCAwIDEtLjAxLjA2NWwtLjIxMiAxLjA2MmEuNDc1LjQ3NSAwIDAgMS0uMDE3LjA2NS4xMTIuMTEyIDAgMCAxLS4wMjMuMDQ2Yy0uMDE1LjAxNy0uMDM5LjAyNi0uMDcxLjAyNmgtLjA5MmEuMjk4LjI5OCAwIDAgMC0uMDQyLjAwMy4wNzQuMDc0IDAgMCAxLS4wMzMtLjAwNmMtLjAyLS4wMDctLjAzMS0uMDE3LS4wMzYtLjAzYS4zMDMuMzAzIDAgMCAxLS4wMDMtLjA0OWwuMDEtLjA1NWMwLS4wMDcgMC0uMDE0LjAwMy0uMDIzYS43OTkuNzk5IDAgMCAxIC4wMDYtLjAzbC4wODUtLjQxNC4wMTQtLjA3OWEuMjk1LjI5NSAwIDAgMCAuMDEtLjA3Mi4xMzguMTM4IDAgMCAxLS4wMDQtLjAyNi4wMjIuMDIyIDAgMCAwLS4wMS0uMDJjLS4wMDItLjAwMS0uMDA1LS4wMDMtLjAxLS4wMDNhLjIwNS4yMDUgMCAwIDEtLjAyMi4wMTQuNTEzLjUxMyAwIDAgMC0uMDYuMDg4IDYuMjczIDYuMjczIDAgMCAwLS4xNy4zIDUuOTU5IDUuOTU5IDAgMCAxLS4xMTMuMiAyLjEzIDIuMTMgMCAwIDAtLjA1Ni4xMDQuMjE3LjIxNyAwIDAgMS0uMDY4LjA4Mi4xMDQuMTA0IDAgMCAxLS4wNDYuMDE2SDU3LjkyM2EuMjQuMjQgMCAwIDAtLjAyOS0uMDEuMDgzLjA4MyAwIDAgMS0uMDIzLS4wMTYuMDUuMDUgMCAwIDEtLjAxMy0uMDI2IDMuNzc4IDMuNzc4IDAgMCAwLS4wMi0uMDkyLjY0NC42NDQgMCAwIDAtLjAxLS4wNjUgMi43NTUgMi43NTUgMCAwIDEtLjAzMi0uMTkzIDIuNjA1IDIuNjA1IDAgMCAwLS4wMzMtLjE5NmwtLjAyLS4xMWEuMTkyLjE5MiAwIDAgMC0uMDM1LS4wOTZjLS4wMDUgMC0uMDA4LjAwMi0uMDEuMDA0aC0uMDA3YS4wNzMuMDczIDAgMCAwLS4wMjIuMDMuMTA0LjEwNCAwIDAgMC0uMDEzLjAzMi4wOC4wOCAwIDAgMS0uMDA3LjAzbC0uMDEuMDU1YS4xMzIuMTMyIDAgMCAwLS4wMTMuMDQ5bC0uMDc4LjM3OWMtLjAwNS4wMjgtLjAxMS4wNjMtLjAyLjEwNGEuMi4yIDAgMCAxLS4wMy4wODUuMTMuMTMgMCAwIDAtLjAxOS4wMTYuMDQxLjA0MSAwIDAgMS0uMDE2LjAxLjE2Ni4xNjYgMCAwIDEtLjA0LjAxaC0uMTNhLjA5OC4wOTggMCAwIDEtLjA2NS0uMDJjLS4wMTEtLjAwOC0uMDE3LS4wMjItLjAxNy0uMDQyYS45NDMuOTQzIDAgMCAxIC4wMS0uMDY1bC4yMTYtMS4wNzguMDEzLS4wNTZhLjE0OC4xNDggMCAwIDEgLjAyMy0uMDQ1LjA3OC4wNzggMCAwIDEgLjA1Mi0uMDNjLjAwNi0uMDAyLjAxLS4wMDIuMDEzIDAgLjAwNCAwIC4wMSAwIC4wMTYtLjAwM0g1Ny44MzhjLjAyMiAwIC4wMzguMDA1LjA1LjAxNi4wMTcuMDEzLjAyNy4wMzQuMDI5LjA2MmEzMS4zMDQgMzEuMzA0IDAgMCAxIC4wODIuNDUgNy4xMTggNy4xMTggMCAwIDAgLjA0OS4yNDUuMDQuMDQgMCAwIDAgLjAyNi4wMjdjLjAxLjAwNC4wMi4wMDIuMDI5LS4wMDZhLjMzNi4zMzYgMCAwIDAgLjA3NS0uMDk4Yy4wMTUtLjAyOS4wMy0uMDU2LjA0Ni0uMDgyLjA0Ni0uMDcyLjA4OC0uMTQ1LjEyNy0uMjE5LjA0MS0uMDc2LjA4NS0uMTUuMTMtLjIyMi4wMTgtLjAzLjAzNi0uMDYyLjA1My0uMDk1YS4xNTYuMTU2IDAgMCAxIC4wNzgtLjA3Mi4xNjUuMTY1IDAgMCAxIC4wNDYtLjAwNmguMjM2YS4xMDMuMTAzIDAgMCAxIC4wMzUgMGguMDE3YS4xMi4xMiAwIDAgMCAuMDI2LjAxYy4wMS4wMDIuMDE3LjAwNi4wMi4wMTN6Ii8+PHBhdGggZmlsbD0idXJsKCNhKSIgZD0iTTM3LjMxMyAyNi4wMzVjLS4yMDQuMDMtLjU1LjE4MS0uOTYyLjQyNWwuMzM2LjYxNWMuMjY5LS4xOTguNTQyLS4zNjYuODE0LS40OTlsLjAzMi0uMDE2LS4wMzIuMDE2Yy0uMDg5LjA0NC0uMzU3LjE5Mi0uNzY3LjUyMy4zNzQuMDkzLjk0OC4yMDIgMS40MTkuMjc3LjE3LS41MzctLjA5MS0uODgxLS4wOTEtLjg4MXMtLjMzLS41MjMtLjc1LS40NnoiLz48cGF0aCBmaWxsPSIjQkUyMDJFIiBkPSJNMzUuNSAzMS4wMDF6Ii8+PHBhdGggZmlsbD0iI0JFMjAyRSIgZD0iTTM1LjUgMzEuMDAxeiIgb3BhY2l0eT0iLjM1Ii8+PHBhdGggZmlsbD0iI0JFMjAyRSIgZD0iTTM1LjY5MyAzMC40NmMtLjAwMiAwLS4wMDIgMCAwIDAgLjAwNy4wMDEuMDE0IDAgLjAyLjAwMi4wMy4wMDIuMDU4LjAwNC4wODUuMDA0bC0uMTA1LS4wMDZ6Ii8+PHBhdGggZmlsbD0iI0JFMjAyRSIgZD0iTTM1LjY5MyAzMC40NmMtLjAwMiAwLS4wMDIgMCAwIDAgLjAwNy4wMDEuMDE0IDAgLjAyLjAwMi4wMy4wMDIuMDU4LjAwNC4wODUuMDA0bC0uMTA1LS4wMDZ6IiBvcGFjaXR5PSIuMzUiLz48cGF0aCBmaWxsPSJ1cmwoI2IpIiBkPSJNMzUuNTA1IDI4LjY0M2MuMTI3LS4xMjkuMjU0LS4yNTQuMzgxLS4zNzVhOC41ODIgOC41ODIgMCAwIDEgLjgzMi0uNjk1bC0uMzU4LS42NjMtLjA5Mi4wNTVjLS4xMTcuMDctLjI0LjE0Ny0uMzY0LjIzYTEzLjc4NyAxMy43ODcgMCAwIDAtMS4yMDMuOTFsLS4wMTQuMDEyLjQ2NS44OTcuMzUzLS4zN3oiLz48cGF0aCBmaWxsPSJ1cmwoI2MpIiBkPSJNMzIuNjYxIDMzLjI1NWMtLjA2OS4xMS0uMTQuMjIyLS4yMDkuMzM5bC0uMDAyLjAwNGMtLjAxLjAxNy0uMDIxLjAzMi0uMDMuMDUtLjA0Ny4wNzctLjA4Ny4xNDktLjE4My4zMDguMTM5LjA4OS4yNDQuMjQ2LjM0MS40MTgtLjAwNC0uMTUtLjA3OC0uMzEzLS4yMjctLjQ2NC42ODcuMjIzIDEuMjkuMjY3IDEuNjE0LS4wMmExLjAyIDEuMDIgMCAwIDAgLjA4Mi0uMDg0Yy0uMTQ3LjA5LS4zMjIuMDk3LS42NDgtLjAxMmwtLjAwMi0uMDAxaC4wMDJjLjQ4OC0uMDIuNzM2LS4xMDQuOTYyLS4yOTZhMS45NSAxLjk1IDAgMCAwIC4xNi0uMTU1Yy0uNDM2LjItLjkyNy4xNDgtMS40MzUtLjA3bC0uMzg1LS4wOC0uMDQuMDYzeiIvPjxwYXRoIGZpbGw9InVybCgjZCkiIGQ9Im0zMy4xMzYgMzIuMjYxLjMxMi0uNDVjLjEwMi0uMTQ0LjIwNi0uMjg4LjMxNC0uNDMzLjEwNy0uMTQ1LjIxNy0uMjg5LjMyNy0uNDMzLjExMy0uMTQ3LjIyOC0uMjkyLjM0Ni0uNDM1LjExNi0uMTQzLjIzNi0uMjg0LjM1NC0uNDI0LjA0My0uMDUuMDg2LS4xLjEzMi0uMTUuMDc1LS4wODQuMTUyLS4xNjkuMjMtLjI1My4wMDItLjAwNS4wMDgtLjAxLjAxLS4wMTRsLS40ODEtLjkyNGMtLjAwOC4wMDgtLjAxNy4wMTctLjAyOC4wMjQtLjEzLjExMi0uMjYzLjIyNS0uMzkuMzQ0YTEwLjc3OCAxMC43NzggMCAwIDAtLjY5NC42OThsLS4wNi4wNjdhNy4xMDkgNy4xMDkgMCAwIDAtLjY1Ljg1NiA3Ljk4IDcuOTggMCAwIDAtLjE2NS4yNzNjLS4wNDEuMDc1LS4wOC4xNTMtLjEyLjIyOWE0LjggNC44IDAgMCAwLS4yMzQuNTVsLjQ5LjkzMmMuMDc2LS4xMTguMTU3LS4yMzUuMjM3LS4zNTdsLjA3LS4xeiIvPjxwYXRoIGZpbGw9InVybCgjZSkiIGQ9Ik0zMi4yNzYgMzIuNDI4Yy0uMDg1LjIzNC0uMTUuNDc0LS4xOS43MjEgMCAuMDA4LS4wMDQuMDE4LS4wMDQuMDI2LS4xNjYtLjI1Mi0uNjM0LS41ODYtLjYzMS0uNTgzLjMyMi40NDguNTYzLjg3LjU4IDEuMjIxLS4xODMtLjAyNS0uNDMyLS4xMzUtLjcxNi0uMjkxLjI5Mi4yODEuNTE0LjQuNjAyLjQzOS0uMjc4LS4wNjYtLjU3My0uMDEyLS44NzIuMDYuNDMxLS4wMDIuNzc5LjA0NyAxLjAyMi4xNTdhMzUuOTE2IDM1LjkxNiAwIDAgMC0xLjMxMyAyLjIzMWMuMTIuMDEuMTk1LS4wMjkuMjQtLjA5NGEzMy44OSAzMy44OSAwIDAgMSAxLjQwNS0yLjMzMmwuMDctLjEwNi4wMTgtLjAzLjI2NS0uMzkyYy4wMjItLjAzLjA0MS0uMDYuMDYzLS4wOTF2LS4wMDJsLS41MjYtLjk2YS4wOS4wOSAwIDAgMC0uMDEzLjAyNnoiLz48cGF0aCBmaWxsPSJ1cmwoI2YpIiBkPSJtMzQuOTQ5IDI5LjY0Mi0uMDQ1LjA1MmMtLjA0Ni4wNTQtLjA5My4xMDctLjEzOS4xNjNsLS4xNTQuMTg0Yy0uMDI3LjAzMS0uMDUzLjA2Mi0uMDguMDk2LS4wOC4wOTgtLjE2LjE5OS0uMjQzLjMwM2EyNC4zMzkgMjQuMzM5IDAgMCAwLS42MTIuODIxYy0uMDk3LjEzOC0uMTk2LjI3OS0uMjk3LjQyNy0uMDg5LjEzLS4xNzguMjY3LS4yNy40MDYtLjAwNi4wMDYtLjAwOS4wMTQtLjAxNC4wMmE0Mi43NSA0Mi43NSAwIDAgMC0uMjguNDM3bC4zOTguMDg2LS4wMjUtLjAxMWMuNDc3LjA5OCAxLjEyLjAyMSAxLjU0Mi0uMTg1LjE5NS0uMDk2LjM3NC0uMjIyLjU0Mi0uMzgzLjEyNi0uMTIuMjQzLS4yNTkuMzU5LS40Mi4xLS4xMzguMTk3LS4yOTIuMjkxLS40NjMtLjExLjAxLS4yMzcuMDA0LS4zNzYtLjAxNWwtLjA3NC0uMDExLS4wNzctLjAxNGMuNDUuMDA2Ljc0LS4xNTYuOTU3LS4zOTlhMS42ODYgMS42ODYgMCAwIDEtLjYzNC4wMDFsLS4wMjUtLjAwNWExLjY4IDEuNjggMCAwIDAgLjQwNC0uMDQ4LjU3OC41NzggMCAwIDAgLjA3Mi0uMDIxYy4wMzUtLjAxMi4wNjgtLjAyNy4xMDItLjA0MWwuMDYxLS4wM2EuNjk3LjY5NyAwIDAgMCAuMTMtLjA5Yy4wMTMtLjAxMi4wMjUtLjAyMS4wMzYtLjAzMy4wMTYtLjAxOC4wMzItLjAzMy4wNDUtLjA1YTIuMTM0IDIuMTM0IDAgMCAwIC4yMi0uMjljLjAwNi0uMDEyLjAxNC0uMDIuMDItLjAzMi4wMTYtLjAzLjAzMi0uMDU4LjA0My0uMDgyYS41OTcuNTk3IDAgMCAwIC4wMzUtLjA5LjIzMy4yMzMgMCAwIDEtLjA1My4wMTEgMi4xOTcgMi4xOTcgMCAwIDEtLjU2LS4wMjRsLS4wNTctLjAxaC4wMWwtMS4yNS0uMjczYy4wMDMuMDA5IDAgLjAxMi0uMDAyLjAxM3oiLz48cGF0aCBmaWxsPSJ1cmwoI2cpIiBkPSJNMzYuNTkgMjcuNTA2Yy0uMTE0LjA5MS0uMjM4LjE5Ny0uMzcyLjMxNi0uMDA4LjAwNy0uMDE1LjAxMi0uMDIuMDJhMTMuMTY4IDEzLjE2OCAwIDAgMC0uNzIuNzFjLS4xMDguMTEzLS4yMTYuMjM0LS4zMzEuMzYzbDEuMjA4LjI1MmMuMzU2LS4wMTkuNTE5LS4wODEuNjgtLjE5NWEzLjYxIDMuNjEgMCAwIDAgLjc5NC0uODE3Yy4wNS0uMDc0LjA4OS0uMTQzLjExOS0uMjA2LjAyNC0uMDU2LjA0NC0uMTEuMDYxLS4xNjJhMTkuNjY0IDE5LjY2NCAwIDAgMS0xLjQyLS4yODF6Ii8+PHBhdGggZmlsbD0iI0JFMjAyRSIgZD0iTTM1LjQzNSAzMS4wMDJjLS4wMjIgMC0uMDQ0LS4wMDMtLjA2OC0uMDA0LjAyMiAwIC4wNDQuMDAxLjA2OS4wMDR6Ii8+PHBhdGggZmlsbD0iI0JFMjAyRSIgZD0iTTM1LjQzNSAzMS4wMDJjLS4wMjIgMC0uMDQ0LS4wMDMtLjA2OC0uMDA0LjAyMiAwIC4wNDQuMDAxLjA2OS4wMDR6IiBvcGFjaXR5PSIuMzUiLz48cGF0aCBmaWxsPSJ1cmwoI2gpIiBkPSJNMzUuNDM1IDMxLjAwMmMtLjAyMiAwLS4wNDQtLjAwMy0uMDY4LS4wMDQuMDIyIDAgLjA0NC4wMDEuMDY5LjAwNHoiLz48cGF0aCBmaWxsPSIjQkUyMDJFIiBkPSJNMzUuNjkxIDMwLjQ2M2MuMDA3LjAwMS4wMTMgMCAuMDIyLjAwMi0uMDA2LS4wMDEtLjAxMyAwLS4wMjItLjAwMnoiLz48cGF0aCBmaWxsPSIjQkUyMDJFIiBkPSJNMzUuNjkxIDMwLjQ2M2MuMDA3LjAwMS4wMTMgMCAuMDIyLjAwMi0uMDA2LS4wMDEtLjAxMyAwLS4wMjItLjAwMnoiIG9wYWNpdHk9Ii4zNSIvPjxwYXRoIGZpbGw9InVybCgjaSkiIGQ9Ik0zNS42OTEgMzAuNDYzYy4wMDcuMDAxLjAxMyAwIC4wMjIuMDAyLS4wMDYtLjAwMS0uMDEzIDAtLjAyMi0uMDAyeiIvPjxwYXRoIGZpbGw9InVybCgjaikiIGQ9Ik0zMC4yMjggMjQuNzk0Yy4xOTIuMTY2LjUuNTM4Ljg1NiAxLjA0MmwtLjQzOS4zNDNhMTAuOTIgMTAuOTIgMCAwIDAtLjcyNy0xLjA0NmMuMDA4LjAxMi4wMi4wMjQuMDI4LjAzNi4wNzguMTAxLjMxMi40MTguNjUgMS0uMzgtLjE2NC0uOTU5LS40NS0xLjQzLS42OTctLjA2Ny0uNjEyLjI1LS43NTUuMjUtLjc1NXMuNDE1LS4yNjMuODEyLjA3OHoiLz48cGF0aCBmaWxsPSIjQkUyMDJFIiBkPSJNMzAuMDEzIDMwLjA3OXoiLz48cGF0aCBmaWxsPSIjQkUyMDJFIiBkPSJNMzAuMDEzIDMwLjA3OXoiIG9wYWNpdHk9Ii4zNSIvPjxwYXRoIGZpbGw9IiNCRTIwMkUiIGQ9Ik0zMC4wNTggMjkuNTE0Yy4wMDIgMCAuMDAyIDAgMCAwbC0uMDItLjAwOGMtLjAyOC0uMDEyLS4wNTYtLjAyMy0uMDgxLS4wMzZsLjEuMDQ0eiIvPjxwYXRoIGZpbGw9IiNCRTIwMkUiIGQ9Ik0zMC4wNTggMjkuNTE0Yy4wMDIgMCAuMDAyIDAgMCAwbC0uMDItLjAwOGMtLjAyOC0uMDEyLS4wNTYtLjAyMy0uMDgxLS4wMzZsLjEuMDQ0eiIgb3BhY2l0eT0iLjM1Ii8+PHBhdGggZmlsbD0idXJsKCNrKSIgZD0iTTMxLjEyOCAyNy45ODlhMzYuOTMgMzYuOTMgMCAwIDAtLjMwOS0uNjE0IDE4LjAxIDE4LjAxIDAgMCAwLS42OTctMS4yMjVsLjQ3OS0uMzY1LjA4Mi4xMTZjLjEwMi4xNDcuMjEuMzAzLjMxOC40NjdhMjkuMTUzIDI5LjE1MyAwIDAgMSAxLjAyNSAxLjY4MmwuMDExLjAyLS42MjcuNTA5Yy0uMDk2LS4xOTgtLjE4OS0uMzk1LS4yODItLjU5eiIvPjxwYXRoIGZpbGw9InVybCgjbCkiIGQ9Ik0zMS42MjQgMzMuNDc4Yy4wNDcuMTQ4LjA5NS4zLjE0MS40NTZsLjAwMi4wMDYuMDIuMDY1LjEyLjQxYy0uMTUtLjAxMS0uMjguMDYzLS40MDcuMTU2LjAzMi0uMTM2LjEzMy0uMjM2LjMwNi0uMjc2LS43MS0uMjU4LTEuMzAzLS42MjUtMS41NjctMS4xMWEyIDIgMCAwIDEtLjA2NC0uMTM0Yy4xMjcuMTg0LjI5NS4zMDguNjMyLjQyN2wuMDAzLjAwMWgtLjAwM2MtLjQ3LS4zNS0uNjk3LS41OTUtLjg4LS45MjZhMy44NiAzLjg2IDAgMCAxLS4xMjgtLjI1MmMuMzg3LjQ4Ljg3NC43NjQgMS40MDkuOTA2bC4zODkuMTg3LjAyNy4wODR6Ii8+PHBhdGggZmlsbD0idXJsKCNtKSIgZD0ibTMyLjA1IDMyLjM4NS0uMjI3LS42MzJhNDAuNjk0IDQwLjY5NCAwIDAgMC0uNDgtMS4yNDUgMzAuMTM5IDMwLjEzOSAwIDAgMC0uMjY0LS42NDNjLS4wOS0uMjExLS4xODQtLjQyNS0uMjc1LS42MzZhMzAuMDM0IDMwLjAzNCAwIDAgMC0uMjg2LS42MjJsLS4wMDktLjAyMS42NjEtLjUyN2MuMDA3LjAxMy4wMTQuMDI3LjAyNC4wNDFhMjEuMTQyIDIxLjE0MiAwIDAgMSAuODkxIDEuNzEzbC4wNDguMTA0YTEzLjEwNCAxMy4xMDQgMCAwIDEgLjQ4OSAxLjI0Yy4wNDEuMTI4LjA4LjI1LjExNC4zNjcuMDI3LjA5OS4wNTIuMTk4LjA3Ny4yOTUuMDU2LjIzLjA5OC40NTMuMTMuNjcybC0uNjcuNTNjLS4wNTUtLjE2My0uMTE1LS4zMjgtLjE3MS0uNDk1bC0uMDUxLS4xNDF6Ii8+PHBhdGggZmlsbD0idXJsKCNuKSIgZD0iTTMxLjkyNiAzMi41NGMuMDQuMjczLjA1OC41MzkuMDQ5Ljc5NWwtLjAwMS4wMjZjLjIyLS4xMjYuNzY0LS4xMzIuNzYtLjEzLS40MTkuMjA2LS43NDkuNDQxLS44MzguNzU3LjE5My4wOTYuNDY4LjE1Ny43ODkuMTk2YTEuNzY4IDEuNzY4IDAgMCAxLS43MDEuMDE3Yy4yOTYuMTIuNTg2LjM2Mi44NzYuNjI1LS40NC0uMjg0LS44MDMtLjQ2NS0xLjA3My0uNTIuMzA3LjkwNy42MDEgMS44OTQuODg4IDIuOTMzYS40NTguNDU4IDAgMCAxLS4yMjUtLjI0NCA1Mi4zMjUgNTIuMzI1IDAgMCAwLS45NjItMy4wODhjLS4wMTYtLjA0Ny0uMDM1LS4wOTUtLjA1LS4xNDRsLS4wMTMtLjA0YTgxLjIxMyA4MS4yMTMgMCAwIDAtLjE5MS0uNTM4bC0uMDQ2LS4xMjV2LS4wMDJsLjczLS41NWMuMDA1LjAxMS4wMDcuMDIuMDA4LjAzMXoiLz48cGF0aCBmaWxsPSJ1cmwoI28pIiBkPSJtMzAuNzEgMjkuMDEyLjAzNS4wOC4xMDYuMjQ2LjExOC4yNzguMDYuMTQ0YTMxLjk4OCAzMS45ODggMCAwIDEgLjQxMiAxLjAzOGMuMDc0LjE5Mi4xNDkuMzkzLjIyMy41OTcuMDcuMTk1LjE0Mi4zOTQuMjE0LjZsLjE5MS41NjVjLjAwNS4wMS4wMDYuMDE5LjAxLjAyOC4wNjMuMTkuMTI3LjM4Ni4xOTEuNTg3LjAwMi4wMDQuMDA1LjAwOS4wMDQuMDEybC0uNDA3LS4xOTYuMDI2LjAwNmMtLjQ4Ny0uMjQtMS4xMDUtLjc1Ny0xLjQ4My0xLjI0MWE0LjUyNiA0LjUyNiAwIDAgMS0uNDYzLS43MyA1LjY2NyA1LjY2NyAwIDAgMS0uMjc2LS42MzggNy44MDIgNy44MDIgMCAwIDEtLjIwMS0uNjMxYy4xMDcuMDg2LjIzMy4xNjguMzczLjI0NmwuMDc1LjA0Mi4wNzguMDRhMi40MyAyLjQzIDAgMCAxLS44NjgtMS4wMzNjLjExMi4xMDUuMjk5LjI1OC41MjguMzkuMDMuMDE3LjA2My4wMzQuMDk2LjA1bC4wMjUuMDEzYTMuMTIzIDMuMTIzIDAgMCAxLS40NTUtLjM5NCAyLjU2NCAyLjU2NCAwIDAgMS0uMDkzLS4xMDhjLS4wMTgtLjAyNS0uMDM3LS4wNDctLjA1NS0uMDcxYTEuNTA2IDEuNTA2IDAgMCAxLS4xMS0uMTc0Yy0uMDEyLS4wMi0uMDIzLS4wMzctLjAzLS4wNTUtLjAxMy0uMDI3LS4wMjYtLjA1My0uMDM2LS4wNzhhMy45NSAzLjk1IDAgMCAxLS4xNjMtLjQyMWMtLjAwMy0uMDE1LS4wMS0uMDI4LS4wMTMtLjA0My0uMDEtLjA0LS4wMjItLjA3Ni0uMDI4LS4xMDdhLjg0NS44NDUgMCAwIDEtLjAxOC0uMTA2LjQ2LjQ2IDAgMCAwIC4wNS4wNDYgMy41MzQgMy41MzQgMCAwIDAgLjU1Ni4zNjdsLjA1OC4wM2MtLjAwMi0uMDAyLS4wMDgtLjAwNC0uMDEtLjAwN2wxLjI3OS42MTRhLjAxLjAxIDAgMCAwIDAgLjAxNHoiLz48cGF0aCBmaWxsPSJ1cmwoI3ApIiBkPSJNMzAuMjQgMjYuNDMzYy4wOTQuMTYxLjE5NS4zNDMuMzA0LjU0NC4wMDYuMDExLjAxMi4wMjEuMDE2LjAzMmEyNS43OTcgMjUuNzk3IDAgMCAxIC41NyAxLjE0NWMuMDg0LjE3Ny4xNjcuMzYyLjI1Ni41NTlsLTEuMjIyLS41ODNjLS4zNDMtLjI1OC0uNDktLjQyNS0uNjI1LS42MzlhNy4xNzcgNy4xNzcgMCAwIDEtLjYyMy0xLjI5MyAyLjU0NiAyLjU0NiAwIDAgMS0uMDc4LS4yNzIgMi4zMzMgMi4zMzMgMCAwIDEtLjAzLS4xOTFjLjQ3LjI0NSAxLjA1LjUzMyAxLjQzMi42OTh6Ii8+PHBhdGggZmlsbD0iI0JFMjAyRSIgZD0ibTMwLjA3MyAzMC4xMDguMDY2LjAyOWExLjAzMSAxLjAzMSAwIDAgMC0uMDY2LS4wMjl6Ii8+PHBhdGggZmlsbD0iI0JFMjAyRSIgZD0ibTMwLjA3MyAzMC4xMDguMDY2LjAyOWExLjAzMSAxLjAzMSAwIDAgMC0uMDY2LS4wMjl6IiBvcGFjaXR5PSIuMzUiLz48cGF0aCBmaWxsPSJ1cmwoI3EpIiBkPSJtMzAuMDczIDMwLjEwOC4wNjYuMDI5YTEuMDMxIDEuMDMxIDAgMCAwLS4wNjYtLjAyOXoiLz48cGF0aCBmaWxsPSIjQkUyMDJFIiBkPSJtMzAuMDU3IDI5LjUxNS0uMDIxLS4wMDguMDIxLjAwOHoiLz48cGF0aCBmaWxsPSIjQkUyMDJFIiBkPSJtMzAuMDU3IDI5LjUxNS0uMDIxLS4wMDguMDIxLjAwOHoiIG9wYWNpdHk9Ii4zNSIvPjxwYXRoIGZpbGw9InVybCgjcikiIGQ9Im0zMC4wNTcgMjkuNTE1LS4wMjEtLjAwOC4wMjEuMDA4eiIvPjxkZWZzPjxsaW5lYXJHcmFkaWVudCBncmFkaWVudFVuaXRzPSJ1c2VyU3BhY2VPblVzZSIgeTI9IjI1LjkwOCIgeDI9IjM5LjA3OSIgeTE9IjI2LjYxMSIgeDE9IjM2LjY1OCIgaWQ9ImEiPjxzdG9wIHN0b3AtY29sb3I9IiNGNjk5MjMiLz48c3RvcCBzdG9wLWNvbG9yPSIjRjc5QTIzIiBvZmZzZXQ9Ii4zMTIiLz48c3RvcCBzdG9wLWNvbG9yPSIjRTk3ODI2IiBvZmZzZXQ9Ii44MzgiLz48L2xpbmVhckdyYWRpZW50PjxsaW5lYXJHcmFkaWVudCBncmFkaWVudFVuaXRzPSJ1c2VyU3BhY2VPblVzZSIgeTI9IjI2LjYzNyIgeDI9IjM1LjM3MSIgeTE9IjM0LjczNiIgeDE9IjI5Ljk4OCIgaWQ9ImIiPjxzdG9wIHN0b3AtY29sb3I9IiM5RTIwNjQiIG9mZnNldD0iLjMyMyIvPjxzdG9wIHN0b3AtY29sb3I9IiNDOTIwMzciIG9mZnNldD0iLjYzIi8+PHN0b3Agc3RvcC1jb2xvcj0iI0NEMjMzNSIgb2Zmc2V0PSIuNzUxIi8+PHN0b3Agc3RvcC1jb2xvcj0iI0U5NzgyNiIgb2Zmc2V0PSIxIi8+PC9saW5lYXJHcmFkaWVudD48bGluZWFyR3JhZGllbnQgZ3JhZGllbnRVbml0cz0idXNlclNwYWNlT25Vc2UiIHkyPSIzMS4wMTUiIHgyPSIzNC42NjEiIHkxPSIzNS41ODkiIHgxPSIzMS42ODgiIGlkPSJjIj48c3RvcCBzdG9wLWNvbG9yPSIjMjgyNjYyIi8+PHN0b3Agc3RvcC1jb2xvcj0iIzY2MkU4RCIgb2Zmc2V0PSIuMDk1Ii8+PHN0b3Agc3RvcC1jb2xvcj0iIzlGMjA2NCIgb2Zmc2V0PSIuNzg4Ii8+PHN0b3Agc3RvcC1jb2xvcj0iI0NEMjAzMiIgb2Zmc2V0PSIuOTQ5Ii8+PC9saW5lYXJHcmFkaWVudD48bGluZWFyR3JhZGllbnQgZ3JhZGllbnRVbml0cz0idXNlclNwYWNlT25Vc2UiIHkyPSIyNi42MjIiIHgyPSIzNS41MjUiIHkxPSIzNS4wNjMiIHgxPSIyOS45OTYiIGlkPSJkIj48c3RvcCBzdG9wLWNvbG9yPSIjOUUyMDY0IiBvZmZzZXQ9Ii4zMjMiLz48c3RvcCBzdG9wLWNvbG9yPSIjQzkyMDM3IiBvZmZzZXQ9Ii42MyIvPjxzdG9wIHN0b3AtY29sb3I9IiNDRDIzMzUiIG9mZnNldD0iLjc1MSIvPjxzdG9wIHN0b3AtY29sb3I9IiNFOTc4MjYiIG9mZnNldD0iMSIvPjwvbGluZWFyR3JhZGllbnQ+PGxpbmVhckdyYWRpZW50IGdyYWRpZW50VW5pdHM9InVzZXJTcGFjZU9uVXNlIiB5Mj0iMzAuNjE3IiB4Mj0iMzMuNDA1IiB5MT0iMzUuMzIiIHgxPSIzMC40NjciIGlkPSJlIj48c3RvcCBzdG9wLWNvbG9yPSIjMjgyNjYyIi8+PHN0b3Agc3RvcC1jb2xvcj0iIzY2MkU4RCIgb2Zmc2V0PSIuMDk1Ii8+PHN0b3Agc3RvcC1jb2xvcj0iIzlGMjA2NCIgb2Zmc2V0PSIuNzg4Ii8+PHN0b3Agc3RvcC1jb2xvcj0iI0NEMjAzMiIgb2Zmc2V0PSIuOTQ5Ii8+PC9saW5lYXJHcmFkaWVudD48bGluZWFyR3JhZGllbnQgZ3JhZGllbnRVbml0cz0idXNlclNwYWNlT25Vc2UiIHkyPSIyNy41NjYiIHgyPSIzNi41NDIiIHkxPSIzNS40NjUiIHgxPSIzMS4zMDUiIGlkPSJmIj48c3RvcCBzdG9wLWNvbG9yPSIjOUUyMDY0IiBvZmZzZXQ9Ii4zMjMiLz48c3RvcCBzdG9wLWNvbG9yPSIjQzkyMDM3IiBvZmZzZXQ9Ii42MyIvPjxzdG9wIHN0b3AtY29sb3I9IiNDRDIzMzUiIG9mZnNldD0iLjc1MSIvPjxzdG9wIHN0b3AtY29sb3I9IiNFOTc4MjYiIG9mZnNldD0iMSIvPjwvbGluZWFyR3JhZGllbnQ+PGxpbmVhckdyYWRpZW50IGdyYWRpZW50VW5pdHM9InVzZXJTcGFjZU9uVXNlIiB5Mj0iMjcuMjY0IiB4Mj0iMzYuMTY4IiB5MT0iMzQuOTMxIiB4MT0iMzEuMTkxIiBpZD0iZyI+PHN0b3Agc3RvcC1jb2xvcj0iIzlFMjA2NCIgb2Zmc2V0PSIuMzIzIi8+PHN0b3Agc3RvcC1jb2xvcj0iI0M5MjAzNyIgb2Zmc2V0PSIuNjMiLz48c3RvcCBzdG9wLWNvbG9yPSIjQ0QyMzM1IiBvZmZzZXQ9Ii43NTEiLz48c3RvcCBzdG9wLWNvbG9yPSIjRTk3ODI2IiBvZmZzZXQ9IjEiLz48L2xpbmVhckdyYWRpZW50PjxsaW5lYXJHcmFkaWVudCBncmFkaWVudFVuaXRzPSJ1c2VyU3BhY2VPblVzZSIgeTI9IjI3LjY0NyIgeDI9IjM2LjE1MyIgeTE9IjM1LjM0IiB4MT0iMzIuMDMiIGlkPSJoIj48c3RvcCBzdG9wLWNvbG9yPSIjOUUyMDY0IiBvZmZzZXQ9Ii4zMjMiLz48c3RvcCBzdG9wLWNvbG9yPSIjQzkyMDM3IiBvZmZzZXQ9Ii42MyIvPjxzdG9wIHN0b3AtY29sb3I9IiNDRDIzMzUiIG9mZnNldD0iLjc1MSIvPjxzdG9wIHN0b3AtY29sb3I9IiNFOTc4MjYiIG9mZnNldD0iMSIvPjwvbGluZWFyR3JhZGllbnQ+PGxpbmVhckdyYWRpZW50IGdyYWRpZW50VW5pdHM9InVzZXJTcGFjZU9uVXNlIiB5Mj0iMjcuNDQiIHgyPSIzNi42NzYiIHkxPSIzNS43OCIgeDE9IjMyLjA3NiIgaWQ9ImkiPjxzdG9wIHN0b3AtY29sb3I9IiM5RTIwNjQiIG9mZnNldD0iLjMyMyIvPjxzdG9wIHN0b3AtY29sb3I9IiNDOTIwMzciIG9mZnNldD0iLjYzIi8+PHN0b3Agc3RvcC1jb2xvcj0iI0NEMjMzNSIgb2Zmc2V0PSIuNzUxIi8+PHN0b3Agc3RvcC1jb2xvcj0iI0U5NzgyNiIgb2Zmc2V0PSIxIi8+PC9saW5lYXJHcmFkaWVudD48bGluZWFyR3JhZGllbnQgZ3JhZGllbnRVbml0cz0idXNlclNwYWNlT25Vc2UiIHkyPSIyNC4xMDYiIHgyPSIyOC4xNDMiIHkxPSIyNS43NyIgeDE9IjMwLjc1OSIgaWQ9ImoiPjxzdG9wIHN0b3AtY29sb3I9IiNGNjk5MjMiLz48c3RvcCBzdG9wLWNvbG9yPSIjRjc5QTIzIiBvZmZzZXQ9Ii4zMTIiLz48c3RvcCBzdG9wLWNvbG9yPSIjRTk3ODI2IiBvZmZzZXQ9Ii44MzgiLz48L2xpbmVhckdyYWRpZW50PjxsaW5lYXJHcmFkaWVudCBncmFkaWVudFVuaXRzPSJ1c2VyU3BhY2VPblVzZSIgeTI9IjI2LjU1OSIgeDI9IjM2LjI2NyIgeTE9IjM3LjQ4MyIgeDE9IjM1LjQ3MyIgaWQ9ImsiPjxzdG9wIHN0b3AtY29sb3I9IiM5RTIwNjQiIG9mZnNldD0iLjMyMyIvPjxzdG9wIHN0b3AtY29sb3I9IiNDOTIwMzciIG9mZnNldD0iLjYzIi8+PHN0b3Agc3RvcC1jb2xvcj0iI0NEMjMzNSIgb2Zmc2V0PSIuNzUxIi8+PHN0b3Agc3RvcC1jb2xvcj0iI0U5NzgyNiIgb2Zmc2V0PSIxIi8+PC9saW5lYXJHcmFkaWVudD48bGluZWFyR3JhZGllbnQgZ3JhZGllbnRVbml0cz0idXNlclNwYWNlT25Vc2UiIHkyPSIzMC4yMTgiIHgyPSIzMi41NTciIHkxPSIzNi4zIiB4MT0iMzIuMTQ0IiBpZD0ibCI+PHN0b3Agc3RvcC1jb2xvcj0iIzI4MjY2MiIvPjxzdG9wIHN0b3AtY29sb3I9IiM2NjJFOEQiIG9mZnNldD0iLjA5NSIvPjxzdG9wIHN0b3AtY29sb3I9IiM5RjIwNjQiIG9mZnNldD0iLjc4OCIvPjxzdG9wIHN0b3AtY29sb3I9IiNDRDIwMzIiIG9mZnNldD0iLjk0OSIvPjwvbGluZWFyR3JhZGllbnQ+PGxpbmVhckdyYWRpZW50IGdyYWRpZW50VW5pdHM9InVzZXJTcGFjZU9uVXNlIiB5Mj0iMjUuODM3IiB4Mj0iMzUuNDYxIiB5MT0iMzcuMTQzIiB4MT0iMzQuNjczIiBpZD0ibSI+PHN0b3Agc3RvcC1jb2xvcj0iIzlFMjA2NCIgb2Zmc2V0PSIuMzIzIi8+PHN0b3Agc3RvcC1jb2xvcj0iI0M5MjAzNyIgb2Zmc2V0PSIuNjMiLz48c3RvcCBzdG9wLWNvbG9yPSIjQ0QyMzM1IiBvZmZzZXQ9Ii43NTEiLz48c3RvcCBzdG9wLWNvbG9yPSIjRTk3ODI2IiBvZmZzZXQ9IjEiLz48L2xpbmVhckdyYWRpZW50PjxsaW5lYXJHcmFkaWVudCBncmFkaWVudFVuaXRzPSJ1c2VyU3BhY2VPblVzZSIgeTI9IjMwLjI2NiIgeDI9IjMzLjU2MyIgeTE9IjM2LjQxMiIgeDE9IjMzLjE4NyIgaWQ9Im4iPjxzdG9wIHN0b3AtY29sb3I9IiMyODI2NjIiLz48c3RvcCBzdG9wLWNvbG9yPSIjNjYyRThEIiBvZmZzZXQ9Ii4wOTUiLz48c3RvcCBzdG9wLWNvbG9yPSIjOUYyMDY0IiBvZmZzZXQ9Ii43ODgiLz48c3RvcCBzdG9wLWNvbG9yPSIjQ0QyMDMyIiBvZmZzZXQ9Ii45NDkiLz48L2xpbmVhckdyYWRpZW50PjxsaW5lYXJHcmFkaWVudCBncmFkaWVudFVuaXRzPSJ1c2VyU3BhY2VPblVzZSIgeTI9IjI2LjMwNiIgeDI9IjMzLjk5MiIgeTE9IjM2LjkzNCIgeDE9IjMzLjIyNCIgaWQ9Im8iPjxzdG9wIHN0b3AtY29sb3I9IiM5RTIwNjQiIG9mZnNldD0iLjMyMyIvPjxzdG9wIHN0b3AtY29sb3I9IiNDOTIwMzciIG9mZnNldD0iLjYzIi8+PHN0b3Agc3RvcC1jb2xvcj0iI0NEMjMzNSIgb2Zmc2V0PSIuNzUxIi8+PHN0b3Agc3RvcC1jb2xvcj0iI0U5NzgyNiIgb2Zmc2V0PSIxIi8+PC9saW5lYXJHcmFkaWVudD48bGluZWFyR3JhZGllbnQgZ3JhZGllbnRVbml0cz0idXNlclNwYWNlT25Vc2UiIHkyPSIyNi43NzMiIHgyPSIzNC44MjIiIHkxPSIzNi45NiIgeDE9IjM0LjEzMyIgaWQ9InAiPjxzdG9wIHN0b3AtY29sb3I9IiM5RTIwNjQiIG9mZnNldD0iLjMyMyIvPjxzdG9wIHN0b3AtY29sb3I9IiNDOTIwMzciIG9mZnNldD0iLjYzIi8+PHN0b3Agc3RvcC1jb2xvcj0iI0NEMjMzNSIgb2Zmc2V0PSIuNzUxIi8+PHN0b3Agc3RvcC1jb2xvcj0iI0U5NzgyNiIgb2Zmc2V0PSIxIi8+PC9saW5lYXJHcmFkaWVudD48bGluZWFyR3JhZGllbnQgZ3JhZGllbnRVbml0cz0idXNlclNwYWNlT25Vc2UiIHkyPSIyNi44MzUiIHgyPSIzMi41ODYiIHkxPSIzNS41MjUiIHgxPSIzMi41NTUiIGlkPSJxIj48c3RvcCBzdG9wLWNvbG9yPSIjOUUyMDY0IiBvZmZzZXQ9Ii4zMjMiLz48c3RvcCBzdG9wLWNvbG9yPSIjQzkyMDM3IiBvZmZzZXQ9Ii42MyIvPjxzdG9wIHN0b3AtY29sb3I9IiNDRDIzMzUiIG9mZnNldD0iLjc1MSIvPjxzdG9wIHN0b3AtY29sb3I9IiNFOTc4MjYiIG9mZnNldD0iMSIvPjwvbGluZWFyR3JhZGllbnQ+PGxpbmVhckdyYWRpZW50IGdyYWRpZW50VW5pdHM9InVzZXJTcGFjZU9uVXNlIiB5Mj0iMjYuNjM4IiB4Mj0iMzIuNTUiIHkxPSIzNS4zMDEiIHgxPSIzMi42NzMiIGlkPSJyIj48c3RvcCBzdG9wLWNvbG9yPSIjOUUyMDY0IiBvZmZzZXQ9Ii4zMjMiLz48c3RvcCBzdG9wLWNvbG9yPSIjQzkyMDM3IiBvZmZzZXQ9Ii42MyIvPjxzdG9wIHN0b3AtY29sb3I9IiNDRDIzMzUiIG9mZnNldD0iLjc1MSIvPjxzdG9wIHN0b3AtY29sb3I9IiNFOTc4MjYiIG9mZnNldD0iMSIvPjwvbGluZWFyR3JhZGllbnQ+PC9kZWZzPjwvc3ZnPg==;" vertex="1" parent="1">
          <mxGeometry x="390" y="125" width="151.69" height="40" as="geometry" />
        </mxCell>
        <mxCell id="-CglULp98W2lR8GV_lNq-11" value="Dockerize and push image to DckerHub" style="edgeStyle=orthogonalEdgeStyle;rounded=0;orthogonalLoop=1;jettySize=auto;html=1;fontFamily=Verdana;fontSize=13;" edge="1" parent="1" source="-CglULp98W2lR8GV_lNq-4" target="-CglULp98W2lR8GV_lNq-5">
          <mxGeometry relative="1" as="geometry" />
        </mxCell>
        <mxCell id="-CglULp98W2lR8GV_lNq-4" value="" style="image;sketch=0;aspect=fixed;html=1;points=[];align=center;fontSize=12;image=img/lib/mscae/Docker.svg;" vertex="1" parent="1">
          <mxGeometry x="670" y="106.55" width="93.78" height="76.9" as="geometry" />
        </mxCell>
        <mxCell id="-CglULp98W2lR8GV_lNq-12" value="CD pipeline" style="edgeStyle=orthogonalEdgeStyle;rounded=0;orthogonalLoop=1;jettySize=auto;html=1;fontFamily=Verdana;fontSize=13;" edge="1" parent="1" source="-CglULp98W2lR8GV_lNq-5" target="-CglULp98W2lR8GV_lNq-6">
          <mxGeometry relative="1" as="geometry" />
        </mxCell>
        <mxCell id="-CglULp98W2lR8GV_lNq-5" value="" style="image;sketch=0;aspect=fixed;html=1;points=[];align=center;fontSize=12;image=img/lib/mscae/Container_Registries.svg;" vertex="1" parent="1">
          <mxGeometry x="1050" y="110.6" width="80" height="68.8" as="geometry" />
        </mxCell>
        <mxCell id="-CglULp98W2lR8GV_lNq-6" value="" style="shape=image;verticalLabelPosition=bottom;labelBackgroundColor=default;verticalAlign=top;aspect=fixed;imageAspect=0;editableCssRules=.*;image=data:image/svg+xml,PHN2ZyB2aWV3Qm94PSI2Ljc2NzU5ODE1MjE2MDY0NDUgLTEuMTA2MzU5OTU4NjQ4NjgxNiAxODkuMjY4MzcxNTgyMDMxMjUgMjk0Ljk5OTA1Mzk1NTA3ODEiIHhtbG5zPSJodHRwOi8vd3d3LnczLm9yZy8yMDAwL3N2ZyIgd2lkdGg9IjE4OS4yNjgzNzE1ODIwMzEyNSIgaGVpZ2h0PSIyOTQuOTk5MDUzOTU1MDc4MSI+PHBhdGggZD0iTTEzNC45NTYgMTQxLjY3NGwtMTUuNjMyIDIuMzQ1LTIxLjEwNCAyLjM0NS0xMy42NzkuMzktMTMuMjg2LS4zOS0xMC4xNjEtMy4xMjctOC45ODktOS43Ny03LjAzNS0xOS45My0xLjU2Mi00LjMtOS4zOC0zLjEyNi01LjQ3LTguOTg5LTMuOTEtMTIuODk3IDQuMy0xMS4zMzQgMTAuMTYtMy41MTcgOC4yMDYgMy45MDggMy45MDkgOC41OTggNC42OS0uNzgzIDEuNTYyLTEuOTUzLTEuNTYyLTguOTg5LS4zOTItMTEuMzM0IDIuMzQ1LTE1LjYzMS0uMDkxLTguOTI5TDY1IDIyLjg3bDEyLjUwNi04Ljk4OSAyMS44ODUtOS4zNzlMMTIzLjYyIDguMDJsMjEuMTA0IDE1LjI0MSA5Ljc3MSAxNS42MzEgNi4yNTIgMTEuMzM0IDEuNTYzIDI4LjEzOC00LjY5IDI0LjIzLTguNTk4IDIxLjQ5My04LjIwNiAxMS4zMzQiIGZpbGw9IiNGMEQ2QjciLz48cGF0aCBkPSJNMTIxLjY2OCAyMDkuMjgxbC01NS44ODcgMi4zNDV2OS4zNzlsNC42OSAzMi44MjgtMi4zNDUgMi43MzYtMzkuMDgtMTMuMjg4LTIuNzM2LTQuNjktMy45MDctNDQuMTYtOC45ODgtMjYuNTc1LTEuOTU1LTYuMjUyIDMxLjI2NS0yMS40OTMgOS43NzEtMy45MDkgOC41OTggMTAuNTUyIDcuNDI1IDYuNjQ0IDguNTk4IDIuNzM1IDMuOTA4IDEuMTcyIDQuNjg3IDIwLjMyMSAzLjUxOCA0LjI5OSA4Ljk4OS0zLjEyNi02LjI1NCAxMi4xMTYgMzQgMTYuMDIzLTQuMjk3IDIuMzQzIiBmaWxsPSIjMzM1MDYxIi8+PHBhdGggZD0iTTI5LjA0NyA3Mi44OTFsMTAuMTYtMy41MTcgOC4yMDcgMy45MDkgMy45MDggOC41OTcgNC42OS0uNzgyIDEuMTczLTQuNjktMi4zNDUtOC45ODggMi4zNDUtMjEuNDk1LTEuOTU1LTExLjcyNCA3LjAzNS04LjIwNkw3Ny41MDYgMTMuODhsLTQuMjk5LTUuODYzTDUxLjcxNCAxOC41N2wtOC45ODkgNy4wMzUtNS4wOCAxMC45NDItNy44MTYgMTAuNTUyLTIuMzQ1IDEyLjUwNiAxLjU2MyAxMy4yODciIGZpbGw9IiM2RDZCNkQiLz48cGF0aCBkPSJNNDUuMDY5IDM2LjE1NnM1Ljg2Mi0xNC40NTggMjkuMzEtMjEuNDkzUzc1LjU1IDkuNTggNzUuNTUgOS41OGwtMjUuNCA5Ljc3My05Ljc3MSA5Ljc3LTQuMjk4IDcuODE2IDguOTg4LS43ODNtLTExLjcyNCAzNFMyNS4xMzkgNDIuOCA1Ni40MDMgMzguODkxbC0xLjE3My00LjY5LTIxLjQ5NCA1LjA4Mi02LjI1MyAyMC4zMiAxLjU2MyAxMy4yODggNC4yOTktMi43MzUiIGZpbGw9IiNEQ0Q5RDgiLz48cGF0aCBkPSJNNDUuODUxIDEwNi41MDFsNS4xMTgtNC45NTdzMi4zMS4yNjkgMi43IDMuMDA0Yy4zOSAyLjczNiAxLjU2MiAyNy4zNTcgMTguMzY3IDQwLjY0NCAxLjUzMyAxLjIxMy0xMi41MDUtMS45NTUtMTIuNTA1LTEuOTU1bC0xMi41MDctMTkuNTRtNzAuNzM3LTI0LjYyMXMuOTEyLTExLjg0NiA0LjEwMi0xMC45MzVjMy4xOS45MTEgMy4xOSA0LjEwMSAzLjE5IDQuMTAxcy03Ljc0OCA1LjAxMy03LjI5MiA2LjgzNG0zMi40MzUtNDMuMzc4cy02LjQ0MSAxLjM2LTcuMDM1IDcuMDM1Yy0uNTk0IDUuNjc2IDcuMDM1IDEuMTcyIDguMjA2Ljc4Mm0tNDguNDU4LTcuNDI2Uzk0LjMxIDU3LjI2IDk0LjMxIDYyLjczYzAgNS40NzEgOS43NzEgNS4wODEgMTIuNTA2IDIuNzM2TTQ5Ljc1OSA4MS40OXMtMTQuODUxLTguOTg5LTE2LjQxNC0uMzljLTEuNTYyIDguNTk4LTUuMDgxIDE0Ljg1MSAyLjM0NSAyMy44MzlsLTUuMDgtMS41NjMtNC42OS0xMi4xMTUtMS41NjItMTEuNzIzIDguOTg3LTkuMzggMTAuMTYxLjc4MiA1Ljg2MyA0LjY5LjM5IDUuODZtNy4wMzUtMjQuNjJzNi42NDQtMzQuMzkgNDAuMjU0LTQxLjAzNGMyNy42Ny01LjQ2OSA0Mi4yMDYgMS4xNzMgNDcuNjc3IDcuNDI1IDAgMC0yNC42Mi0yOS4zMDktNDguMDY5LTIwLjMyMS0yMy40NDggOC45ODktNDAuNjQyIDI1LjQwMi00MC4yNTIgMzUuOTUyLjY2NSAxNy45Ny4zOSAxNy45NzguMzkgMTcuOTc4bTkwLjY2Ny0yOS43MDNzLTExLjMzMi0uMzktMTEuNzI0IDkuNzcyYzAgMCAwIDEuNTYyLjc4MiAzLjEyNiAwIDAgOC45OS0xMC4xNjEgMTQuNDYtNC42OSIgZmlsbD0iI0Y3RTRDRCIvPjxwYXRoIGQ9Ik05Ny44MzUgNDEuMTIzcy0xLjk1MS0xNS41OTctMTUuMjQ5LTYuNTNjLTguNTk3IDUuODYzLTcuODE1IDE0LjA3LTYuMjUyIDE1LjYzMiAxLjU2MiAxLjU2NCAxLjEzNyA0LjcxMyAyLjMyNyAyLjU1MSAxLjE4OS0yLjE2MS43OTgtOS4xOTUgNS4wOTgtMTEuMTQ4IDQuMjk4LTEuOTU0IDExLjM0Ni00LjEzNyAxNC4wNzYtLjUwNSIgZmlsbD0iI0Y3RTRDRCIvPjxwYXRoIGQ9Ik02MS4wOTMgMTQ2Ljc1NGwtMzYuNzM2IDE2LjQxNFMzOS42IDIyMy43NDEgMzEuNzg0IDI0Mi41bC01LjQ3Mi0xLjk1NC0uMzkxLTIzLjA1Ny0xMC4xNi00My43Ny00LjMtMTIuMTE2IDM4LjI5OS0yNS43OTIgMTEuMzM0IDEwLjk0Mm0zLjc3NiAzMy41MDRsNS4yMTEgNi4zNnYyMy40NDhoLTYuMjUzcy0uNzgyLTE2LjQxNC0uNzgyLTE4LjM2OWMwLTEuOTU0Ljc4Mi04Ljk4OS43ODItOC45ODlNNjUgMjEzLjU4MmwtMTcuNTg2Ljc4IDUuMDgxIDMuNTE4TDY1IDIxOS44MzQiIGZpbGw9IiM0OTcyOEIiLz48cGF0aCBkPSJNMTI1LjE4NSAyMDkuNjc0bDE0LjQ1OS0uMzkxIDMuNTE3IDM1Ljk1NS0xNC44NTEgMS45NTMtMy4xMjUtMzcuNTE3IiBmaWxsPSIjMzM1MDYxIi8+PHBhdGggZD0iTTEyOS4wOTMgMjA5LjY3NGwyMS44ODUtMS4xNzNzOC45ODctMjIuNjY2IDguOTg3LTIzLjgzOSA3LjgxNi0zMi44MjcgNy44MTYtMzIuODI3bC0xNy41ODYtMTguMzY4LTMuNTE4LTMuMTI2LTkuMzc4IDkuMzc5djM2LjM0NWwtOC4yMDcgMzMuNjA5IiBmaWxsPSIjMzM1MDYxIi8+PHBhdGggZD0iTTEzOC44NjMgMjA2LjkzOGwtMTMuNjc4IDIuNzM1IDEuOTU0IDEwLjk0M2M1LjA4IDIuMzQ1IDEzLjY3OS0zLjkwOSAxMy42NzktMy45MDltLTEuNTY0LTc4LjE1OWwyNy4zNTYgMjAuMzIuNzgyLTkuMzc4LTIwLjcxMi0xOS4xNDktNy40MjYgOC4yMDYiIGZpbGw9IiM0OTcyOEIiLz48cGF0aCBkPSJNNzguNTYzIDI4Ni42NjVsLTguMDkyLTMyLjgzMy00LjAyNC0yNC4yMjUtLjY2NS0xNy45OCAzNi42Mi0xLjk1IDIyLjc4My0uMDA0LTIuMDcxIDQxLjAzNyAzLjUxNyAzMS42NTUtLjM5IDUuODYzLTI5LjcgMi4zNDUtMTcuOTc5LTMuOTA4IiBmaWxsPSIjRkZGIi8+PHBhdGggZD0iTTEyMC4xMDQgMjA5LjI4MnMtMS45NTQgNDAuNjQ0IDMuOTA4IDY5LjU2M2MwIDAtMTEuNzIzIDcuNDI2LTI4LjkyIDkuMzc5bDMyLjgyOC0xLjE3MyAzLjkwNy0yLjM0NS00LjY5LTY0LjA5MS0xLjE3Mi0xMy42OCIgZmlsbD0iI0RDRDlEOCIvPjxwYXRoIGQ9Ik0xNDMuODI3IDI0Mi4xMTRsMTUuMjQyLTQuMjk5IDI4LjkxOS0xLjU2MyA0LjI5OC0xMy4yODYtNy44MTYtMjMuMDU3LTguOTg3LTEuMTczLTEyLjUwNyAzLjkwOC0xMS45OTggNS44NTgtNi4zNy0xLjE2OC00Ljk2NCAxLjk1IiBmaWxsPSIjRkZGIi8+PHBhdGggZD0iTTE0My41NTEgMjM0LjI5NHMxMC4xNi00LjY4OSAxMS43MjQtNC4yOThsLTQuMjk4LTIxLjQ5NSA1LjA4LTEuOTU0czMuNTE4IDIwLjMyMiAzLjUxOCAyMi42NjdjMCAwIDIxLjg4NCAxLjE3MiAyMy44MzkgMS4xNzIgMCAwIDQuNjktOC45ODkgMy41MTctMTguMzY3bDQuMjk5IDEyLjUwNi4zOSA3LjAzNS02LjI1MiA5LjM3OS03LjAzNSAxLjU2Mi0xMS43MjQtLjM5MS0zLjkwOC01LjA4LTEzLjY3OCAxLjk1NC00LjMgMS41NjMiIGZpbGw9IiNEQ0Q5RDgiLz48cGF0aCBkPSJNMTI4LjE5NSAyMDYuNTUxbC04LjU5OC0yMS44ODUtOC45ODgtMTIuODk3czEuOTUzLTUuNDcxIDQuNjktNS40NzFoOC45ODhsOC41OTggMy4xMjYtLjc4MSAxNC40Ni0zLjkwOSAyMi42NjciIGZpbGw9IiNGRkYiLz48cGF0aCBkPSJNMTI5Ljg3NSAxOTkuMTIxcy0xMC45NDQtMjEuMTAyLTEwLjk0NC0yNC4yMjljMCAwIDEuOTU0LTQuNjkgNC42OS0zLjUxN3M4LjU5OSA0LjI5OCA4LjU5OSA0LjI5OHYtNy40MjVsLTEzLjI4OC0yLjczNy04Ljk4NyAxLjE3MyAxNS4yNDEgMzUuOTU0IDMuMTI2LjM5IiBmaWxsPSIjRENEOUQ4Ii8+PHBhdGggZD0iTTgyLjA4IDE0Ny41NGwtMTAuODI2LTEuMTc3LTEwLjE2Mi0zLjEyN3YzLjUxOGw0Ljk2NiA1LjQ3NSAxNS42MzIgNy4wMzUiIGZpbGw9IiNGRkYiLz48cGF0aCBkPSJNNjQuNjExIDE0OC43MTFzMTIuMTE2IDUuMDgxIDE2LjAyNCAzLjkwOWwuMzg5IDQuNjg1LTEwLjk0LTIuMzQtNi42NDQtNC42OSAxLjE3MS0xLjU2NCIgZmlsbD0iI0RDRDlEOCIvPjxwYXRoIGQ9Ik0xNDMuNzg1IDE2Ny42MjljLTYuNjMxLS4xOTUtMTIuNjIzLS45ODMtMTcuODY3LTIuNDYzLjM1Ni0yLjE1LS4zMTItNC4yNi4yMjQtNS44MDkgMS40NjMtMS4wNTIgMy45MTMtMS4wMzYgNi4xMjMtMS4yODMtMS45MTEtLjkzOS00LjU5Ni0xLjMxMi02LjgwMS0uNzY4LS4wNTItMS40OTItLjcyMi0yLjQxNy0xLjEyNy0zLjU4NSAzLjczLTEuMzMxIDEyLjUzLTEwLjA1NSAxNy40OC03LjE2NiAyLjM2IDEuMzc0IDMuMzYyIDkuMjIyIDMuNTQ0IDEzLjAzOS4xNTQgMy4xNjUtLjI4NiA2LjM1Ny0xLjU3NiA4LjAzNSIgZmlsbD0iI0QzMzgzMyIvPjxwYXRoIGQ9Ik0xNDMuNzg1IDE2Ny42MjljLTYuNjMxLS4xOTUtMTIuNjIzLS45ODMtMTcuODY3LTIuNDYzLjM1Ni0yLjE1LS4zMTItNC4yNi4yMjQtNS44MDkgMS40NjMtMS4wNTIgMy45MTMtMS4wMzYgNi4xMjMtMS4yODMtMS45MTEtLjkzOS00LjU5Ni0xLjMxMi02LjgwMS0uNzY4LS4wNTItMS40OTItLjcyMi0yLjQxNy0xLjEyNy0zLjU4NSAzLjczLTEuMzMxIDEyLjUzLTEwLjA1NSAxNy40OC03LjE2NiAyLjM2IDEuMzc0IDMuMzYyIDkuMjIyIDMuNTQ0IDEzLjAzOS4xNTQgMy4xNjUtLjI4NiA2LjM1Ny0xLjU3NiA4LjAzNXoiIHN0cm9rZS13aWR0aD0iMi41IiBzdHJva2U9IiNEMzM4MzMiIGZpbGw9Im5vbmUiLz48cGF0aCBkPSJNMTEyLjA3NSAxNTYuNzg5Yy0uMDE4LjUwMS0uMDM5IDEuMDA3LS4wNTkgMS41MTQtMi4wNyAxLjM2LTUuNDEyIDEuMzQzLTcuNjg1IDIuNDg2IDMuMzUuMTQ2IDUuOTg2Ljk1NCA4LjI2OCAyLjA5bC0uMTQ4IDMuNzljLTMuNzk1IDIuNTk3LTcuMjYyIDYuNDY3LTExLjczIDguOTAzLTIuMTEyIDEuMTUzLTkuNTI3IDQuMTE4LTExLjc3NSAzLjU5NC0xLjI3MS0uMjk1LTEuMzg2LTEuODc0LTEuODk1LTMuMzYxLTEuMDgyLTMuMTg1LTMuNTc2LTguMjU2LTMuNzk0LTEzLjA1MS0uMjc3LTYuMDU3LS44ODgtMTYuMjA4IDUuNjQtMTQuOTYgNS4yNjUgMS4wMDUgMTEuMzkgMy40MyAxNS40NjcgNS42NTcgMi40OSAxLjM2MyAzLjkzMSAzLjA0NiA3LjcxMSAzLjMzOCIgZmlsbD0iI0QzMzgzMyIvPjxwYXRoIGQ9Ik0xMTIuMDc1IDE1Ni43ODljLS4wMTguNTAxLS4wMzkgMS4wMDctLjA1OSAxLjUxNC0yLjA3IDEuMzYtNS40MTIgMS4zNDMtNy42ODUgMi40ODYgMy4zNS4xNDYgNS45ODYuOTU0IDguMjY4IDIuMDlsLS4xNDggMy43OWMtMy43OTUgMi41OTctNy4yNjIgNi40NjctMTEuNzMgOC45MDMtMi4xMTIgMS4xNTMtOS41MjcgNC4xMTgtMTEuNzc1IDMuNTk0LTEuMjcxLS4yOTUtMS4zODYtMS44NzQtMS44OTUtMy4zNjEtMS4wODItMy4xODUtMy41NzYtOC4yNTYtMy43OTQtMTMuMDUxLS4yNzctNi4wNTctLjg4OC0xNi4yMDggNS42NC0xNC45NiA1LjI2NSAxLjAwNSAxMS4zOSAzLjQzIDE1LjQ2NyA1LjY1NyAyLjQ5IDEuMzYzIDMuOTMxIDMuMDQ2IDcuNzExIDMuMzM4eiIgc3Ryb2tlLXdpZHRoPSIyLjUiIHN0cm9rZT0iI0QzMzgzMyIgZmlsbD0ibm9uZSIvPjxwYXRoIGQ9Ik0xMTUuODQ0IDE2NC4wMTVjLS41NzktMy4yOTktMS4yNDktNC4yNC0uOTktNy4xMTkgOC44LTUuODY2IDEwLjQ1MiAxMC4wNzYuOTkgNy4xMTkiIGZpbGw9IiNEMzM4MzMiLz48cGF0aCBkPSJNMTE1Ljg0NCAxNjQuMDE1Yy0uNTc5LTMuMjk5LTEuMjQ5LTQuMjQtLjk5LTcuMTE5IDguOC01Ljg2NiAxMC40NTIgMTAuMDc2Ljk5IDcuMTE5eiIgc3Ryb2tlLXdpZHRoPSIyLjUiIHN0cm9rZT0iI0QzMzgzMyIgZmlsbD0ibm9uZSIvPjxwYXRoIGQ9Ik0xMjguNTg1IDE2Ni42ODlzLTIuNzM2LTMuOTA5LS43ODMtNS4wODFjMS45NTUtMS4xNzMgMy45MSAwIDUuMDgyLTEuOTU0IDEuMTcyLTEuOTU1IDAtMy4xMjcuMzktNS40NzJzMi4zNDYtMi43MzYgNC4yOTgtMy4xMjZjMS45NTQtLjM5IDcuNDI3LTEuMTcyIDguMjA3Ljc4M2wtMi4zNDUtNy4wMzUtNC42OS0xLjU2My0xNC44NTEgOC41OTgtLjc4MyA0LjI5OHY4LjU5OG0tMzUuNTU5IDE0Ljg1MWMtLjQ3LTYuMDk5LS45NjYtMTIuMTktMS41MTktMTguMjgyLS44MjctOS4wOTggMi4xODYtNy41MSAxMC4wNzItNy41MSAxLjIwNSAwIDcuNDE2IDEuNDM2IDcuODYxIDIuMzQ1IDIuMTMxIDQuMzU0LTMuNTY0IDMuMzg2IDIuNDU1IDYuNjY5IDUuMDgxIDIuNzcgMTQuMDU4LTEuNjgzIDEyLjAwNC03Ljg0Mi0xLjE0OS0xLjM2OS01Ljk4Ny0uNDI2LTcuNzItMS4zMjZsLTkuMTU5LTQuNzQ5Yy0zLjg4NS0yLjAxNS0xMi44NjItNC45NTMtMTcuMDA0LTIuMTM3LTEwLjQ5MyA3LjEzNi42NjMgMjQuOTY3IDQuNDA3IDMyLjQxMiIgZmlsbD0iI0VGM0QzQSIvPjxwYXRoIGQ9Ik05Ny44MzUgNDEuMTIzQzg3LjE4NCAzOC42NCA4MS44OTEgNDUuNTggNzguNjYzIDUyLjc3NmMtMi44ODMtLjY5OC0xLjczNy00LjYxOC0xLjAwOC02LjYxNyAxLjkwNi01LjI0MyA5LjU5LTEyLjIyMyAxNS44NjgtMTEuMjc2IDIuNy40MDcgNi4zNTcgMi44NzcgNC4zMTIgNi4yNG01MS44OTggMTIuMTI5Yy4xNjcuMDA4LjMzNy4wMTMuNTA1LjAyIDIuNDA3IDUgNC40OSAxMC4yOTggNy41MjYgMTQuNzEyLTIuMDM0IDQuNzM3LTE1LjQwMyA4LjkzLTE1LjE5Ni40MjQgMi44OS0xLjI2NCA3Ljg4Mi0uMjU4IDEwLjQ0NS0xLjg3My0xLjQ4Mi00LjA2OC0zLjYyLTcuNTI5LTMuMjgtMTMuMjgzbS00Ni40NDYuMTMxYzIuMjg0IDQuMTg2IDMuMDI4IDguNTg1IDYuMjc0IDExLjc1IDEuNDYzIDEuNDI1IDQuMzA1IDMuMTYgMi44OTYgNy4xMjItLjMzLjkzNS0yLjczNiAzLjAxOC00LjEyNiAzLjQyOC01LjA3NSAxLjQ5OC0xNi45MDEuMzEtMTIuODk2LTYuMDE4IDQuMTk3LjE5NiA5LjgzOSAyLjcyNiAxMi45NzYtLjMyMS0yLjQwOS0zLjg1My02LjcwNS0xMS40NzEtNS4xMjQtMTUuOTYxbTQ0LjU0IDQyLjU1MWMtNy42NCA0LjkwOS0xNi4xNjIgMTAuMjQ2LTI4LjY4MyA5LjAwOS0yLjY3NS0yLjMyNy0zLjY5NS03LjUwMy0xLjA5Ny0xMC45MjIgMS4zNTMgMi4zMjYuNTAzIDYuNjA0IDQuMjc0IDcuMjQ4IDcuMTA1IDEuMjE2IDE1LjM3NC00LjM0NyAyMC40ODQtNi4yOSAzLjE2OS01LjM0My0uMjc0LTcuMzA4LTMuMTI3LTEwLjc0Ny01Ljg0NS03LjA0NS0xMy42ODQtMTUuNzc3LTEzLjQtMjYuMzIzIDIuMzYyLTEuNzEzIDIuNTY2IDIuNjE1IDIuOTA0IDMuNDAyIDMuMDUyIDcuMTQzIDEwLjczMyAxNi4yNzYgMTYuMzM4IDIyLjM5IDEuMzc2IDEuNTA1IDMuNjQzIDIuOTUgMy44OTUgMy45NDUuNzI4IDIuODk1LTEuODkxIDYuMzYzLTEuNTg3IDguMjg4TTQ3LjA4NSA5MC43NjZjLTIuMzk1LTEuMzY3LTIuOTY1LTcuMzg5LTUuNzc3LTcuNTYtNC4wMi0uMjQ0LTMuMjg3IDcuODExLTMuMjcgMTIuNTIzLTIuNzY3LTIuNTEyLTMuMjUzLTEwLjI0NC0xLjIyLTE0LjIxNC0yLjMxNy0xLjEzOC0zLjM1IDEuMjU1LTQuNjM1IDIuMDk3IDEuNjUtMTEuOTkzIDE3LjU0NC01LjU2MyAxNC45MDIgNy4xNTRtMTA1LjYwOSAxMC4xNjNjLTMuNTU4IDYuNzcxLTguNTg5IDE0LjIyNy0xOS4wMjggMTQuNDQ0LS4yMTItMi4xODctLjM3NS01LjUxNC4wMTEtNi44MyA3Ljk4LS43NjcgMTIuOTA3LTQuODI4IDE5LjAxNy03LjYxNG0tNTAuMDA4IDQuMzljNi42NTggMy41MDEgMTguODkzIDMuODc3IDI3Ljk0MSAzLjYxMi40ODUgMS45ODMuNDc0IDQuNDMyLjQ5MyA2Ljg0OS0xMS42MzEuNTgtMjUuMzg0LTIuMjk5LTI4LjQzNC0xMC40NjFtLTEuMjY2IDYuNTI3YzQuNjA0IDExLjU1OSAyMC40MjYgMTAuMjI4IDMzLjc3IDkuOTA5LS41ODcgMS41MDEtMS44NiAzLjI3NC0zLjQ0NCAzLjkxNS00LjI3NiAxLjc0LTE2LjA2OSAzLjA2LTIyLjAwNS0uMDkyLTMuNzY1LTIuMDAyLTYuMTgzLTYuNTI0LTguMjQ2LTkuMTc0LS45OTUtMS4yOC01Ljk1NS00LjU1LS4wNzUtNC41NTgiIGZpbGw9IiMyMzFGMjAiLz48cGF0aCBkPSJNMTQ3LjI3MyAxNzUuNjA1Yy01LjQwMyA5LjI1Mi0xMC41NzIgMTguNzU2LTE2Ljk4MiAyNi45MTcgMi42ODgtNy45IDMuODM4LTIxLjEyNSA0LjI0My0zMS4yMDYgNS42MjEtMi42MyAxMC40MzUuNTkzIDEyLjczOCA0LjI4OSIgZmlsbD0iIzgxQjBDNCIvPjxwYXRoIGQ9Ik0xNzYuMzQzIDIwOC44NjFjLTYuMDUgMS4yMTEtMTAuMyA3LjA4OS0xNi4yIDYuNzEzIDMuMjQzLTQuNTczIDguOTI2LTYuNSAxNi4yLTYuNzEzbTIuNjY4IDkuNDY1Yy00LjkzLjUyMi0xMC43MiAxLjMxOS0xNS43MjEuOTA4IDIuMzY4LTMuNjE1IDExLjQ4OC0yLjM2OCAxNS43MjEtLjkwOG0xLjcwOSA4LjE2MmMtNS41NDEuMTItMTIuNDI4LjAxLTE3LjY5NC0uNDMzIDMuMTE1LTMuMzQ1IDE0LjEtMS4yNDEgMTcuNjk0LjQzMiIgZmlsbD0iIzIzMUYyMCIvPjxwYXRoIGQ9Ik0xMzYuODQ3IDI0OC44MjFjLjc5NSA2Ljk1OSAzLjU1NCAxNC4wMDkgMy4yMDggMjEuNjMtMy4wNjQgMS4wMzMtNC44MjQgMS45MzYtOC45MjggMS45MzEtLjI5LTYuNDc2LTEuMTU2LTE2LjM3Ny0uODk3LTIyLjU1IDIuMDE5LjEzMiA0Ljk5NS0xLjQ0MyA2LjYxNy0xLjAxIiBmaWxsPSIjRENEOUQ4Ii8+PHBhdGggZD0iTTEyNy45MTQgMTQ2LjI2OWMtMi43ODMgMS44MTYtNS4xNTEgNC4wODQtNy44MjQgNi4wMjItNS45MjUuMjkzLTkuMTU5LS40MS0xMy41MTMtMy44MTIuMDcyLS4yNzQuNTEtLjE1MS41MjYtLjQ4NiA2LjM0MyAyLjgyNiAxNC40MDctMS4xNTMgMjAuODEtMS43MjQiIGZpbGw9IiNGMEQ2QjciLz48cGF0aCBkPSJNOTQuNjE4IDE4OS41MDRjMS43NDItNy41NTEgOC41Ny0xMS40NjMgMTQuNzctMTUuNjIxIDYuNCA4LjEyMiAxMC4yOTMgMTguNTY4IDE0LjU4IDI4LjY0OC0xMC4xMjctMy4wNTItMjAuNDc1LTguMDA1LTI5LjM1LTEzLjAyNyIgZmlsbD0iIzgxQjBDNCIvPjxwYXRoIGQ9Ik0xMzAuMjMgMjQ5LjgzMWMtLjI1OSA2LjE3NC42MDcgMTYuMDc1Ljg5NyAyMi41NTIgNC4xMDUuMDA1IDUuODY1LS44OTggOC45MjgtMS45MzIuMzQ2LTcuNjIxLTIuNDEzLTE0LjY3MS0zLjIwNy0yMS42My0xLjYyMy0uNDMyLTQuNiAxLjE0My02LjYxOCAxLjAxek02Ni4zMTggMjE0LjcyYzIuNzA2IDI0Ljg4MiA2LjYyNiA0NS43OTkgMTMuODE3IDY3LjgzMiAxNS45NTcgNC44NDUgMzUuMTk2IDUuMjY4IDQ5LjMwMS44OTUtMi41OS0xMi40MzYtMS40NTktMjcuNTc2LTIuOTcyLTQwLjg0Ni0xLjE0MS05Ljk3NS0uNTU5LTIwLjAxMS0yLjEyNC0zMC4xODgtMTcuMDkxLTMuNTU2LTQxLjI1LS44My01OC4wMjMgMi4zMDd6bTYyLjA2My0yLjE1Yy0uMTQ0IDEwLjY4Ni40NzkgMjEuMjI3IDEuMjk0IDMxLjkyNyA0LjEwNC0uNjE2IDYuODg3LTEuMDI3IDEwLjctMS44NjItMS4yMzgtMTAuMzAxLTEuMDg2LTIxLjg5MS0zLjYwOC0zMS4wMDQtMi45MTMuMDI2LTUuNDgtLjAzNS04LjM4Ni45Mzl6bTIwLjgxNy0xLjcyM2MtMS45NDgtLjQ0Ni00LjIxNi0uMDE3LTYuMDc2LjAxOS44NzUgOC43MTEgMi45OTcgMTguMzI0IDMuNzQ0IDI3LjQ2OCAyLjkyOC4wOSA0LjQ5MS0xLjI5IDYuOS0xLjc1NC4xMjgtOC4wMjgtLjcwMi0xOS4wODUtNC41NjgtMjUuNzMzem0zMS41MTggMjguNzk4YzYuMTAzLTEuNDgzIDkuOTQtOC45NTYgOC4yMzMtMTYuNjMxLTEuMTQ1LTUuMTYtMy4xODUtMTQuODczLTUuMzY5LTE4LjE3My0xLjYxNC0yLjQ0MS01Ljk4OC01LjYzNi05LjQ4LTMuNC01LjY4MSAzLjYzOC0xNS42OSA0LjY5NC0xOS44MzQgOS4wOTggMi4wNzggNi45MTcgMi43MjMgMTYuNDE4IDMuNTc5IDI1LjE4MiA3LjA5OC40NDMgMTUuODMxLTEuOTU0IDIxLjczNC41ODktNC4xMjEgMS4zMzUtOS40NjkgMS4zNDUtMTMuMDI5IDMuMjkxIDIuOTExIDEuNDA2IDkuNzI0IDEuMTIzIDE0LjE2Ni4wNDR6bS01Ni43NDktMzcuMTExYy00LjI4Ni0xMC4wODItOC4xNzgtMjAuNTI3LTE0LjU3OC0yOC42NS02LjIgNC4xNTgtMTMuMDI5IDguMDctMTQuNzcxIDE1LjYyIDguODc0IDUuMDIzIDE5LjIyMyA5Ljk3NiAyOS4zNSAxMy4wM3ptMTAuNTY3LTMxLjIxN2MtLjQwNiAxMC4wODEtMS41NTYgMjMuMzA1LTQuMjQzIDMxLjIwNiA2LjQxLTguMTYgMTEuNTc5LTE3LjY2NCAxNi45ODEtMjYuOTE3LTIuMzAzLTMuNjk2LTcuMTE3LTYuOTE5LTEyLjczOC00LjI4OXptLTExLjk3OC00LjI1NWMtMi40MjctLjI2MS00LjQ4OCAyLjc5MS03LjY0NiAxLjQ3MS0uNzI0LjgtMS4zODEgMS42NjctMi4xMTkgMi40NDcgNi45NzQgOC40MDMgMTAuMTQzIDIwLjMyNyAxNS41MjkgMzAuMjAzIDIuODktOS40ODcgMi41NTctMTkuODggMy4xOTQtMzAuMjM0LTMuOTcyLjI1Mi02LjE3NC0zLjU5Mi04Ljk1OC0zLjg4N3ptLTcuNzAxLTEwLjE2NWMtLjI1OSAyLjg3OS40MSAzLjgyLjk5IDcuMTE5IDkuNDYxIDIuOTU4IDcuODA5LTEyLjk4NS0uOTktNy4xMTl6bS0xMC40OTMtMy40NDVjLTQuMDc2LTIuMjI3LTEwLjItNC42NTMtMTUuNDY3LTUuNjU3LTYuNTI4LTEuMjQ5LTUuOTE1IDguOTA0LTUuNjM5IDE0Ljk2LjIxOCA0Ljc5NSAyLjcxMSA5Ljg2NiAzLjc5NCAxMy4wNTEuNTA5IDEuNDg4LjYyMyAzLjA2NiAxLjg5NSAzLjM2MSAyLjI0OC41MjQgOS42NjMtMi40NDEgMTEuNzc1LTMuNTkzIDQuNDY5LTIuNDM3IDcuOTM1LTYuMzA1IDExLjczLTguOTA0bC4xNDctMy43OWMtMi4yOC0xLjEzOC00LjkxOC0xLjk0NC04LjI2Ny0yLjA5IDIuMjcyLTEuMTQzIDUuNjE1LTEuMTI2IDcuNjg1LTIuNDg2LjAyLS41MDcuMDQxLTEuMDEyLjA1OS0xLjUxNC0zLjc3OS0uMjkxLTUuMjItMS45NzUtNy43MTEtMy4zMzh6bS0zOC45NC03LjA3MmMtMy4zODMgMy40MzUgOS40OSA4LjExNyAxMy41OSA4LjM3LS4wMjMtMi4xNzQgMS4yMzgtNC4yMjMuOTg0LTUuNzgzLTQuODY3LS44NTUtMTEuMjY2LS4yOTEtMTQuNTczLTIuNTg3em00MS42ODIgMS42MTJjLS4wMTYuMzM1LS40NTQuMjE0LS41MjUuNDg3IDQuMzU0IDMuNDAyIDcuNTg2IDQuMTA2IDEzLjUxMiAzLjgxMiAyLjY3My0xLjkzOSA1LjA0Mi00LjIwNiA3LjgyNC02LjAyMi02LjQwNS41NzItMTQuNDY5IDQuNTUtMjAuODExIDEuNzIzem0zOC4yNTkgMTEuNjAyYy0uMTgzLTMuODE3LTEuMTg1LTExLjY2NC0zLjU0NC0xMy4wNC00Ljk1MS0yLjg5LTEzLjc1MyA1LjgzNi0xNy40OCA3LjE2Ny40MDYgMS4xNjggMS4wNzUgMi4wOTMgMS4xMjYgMy41ODUgMi4yMDUtLjU0MiA0Ljg5LS4xNzEgNi44MDEuNzY4LTIuMjEuMjQ3LTQuNjYuMjMtNi4xMjIgMS4yODMtLjUzNiAxLjU0OS4xMzEgMy42NTktLjIyNSA1LjgwOSA1LjI0NSAxLjQ4IDExLjIzNiAyLjI2OCAxNy44NjcgMi40NjMgMS4yODktMS42NzcgMS43MjktNC44NyAxLjU3Ny04LjAzNXpNNTkuNzI2IDE0OS43Yy0xLjA2Mi0uNzU3LTguMjUtMTAuMTEtOS4yMzUtOS43MjEtMTMuMDA2IDUuMTI5LTI1LjE2NyAxMy45OTktMzYuMDM1IDIyLjM4OEMyNC44MTggMTg0LjYgMjkgMjExLjg0IDI5Ljc0IDIzOC4wOTVjMTEuODcgNS41NTEgMjIuMjk1IDEzLjU1NSAzOC40MDMgMTQuMzktMS44NjQtMTMuMTg4LTMuNTY1LTI0Ljk1My00LjYyNC0zNy4zNjktNC4wNDgtMS43MDYtOS44NTQuMDc4LTEzLjY0MS0uNTI5LS4wMzMtNC41NjMgNS43ODMtMS45OTggNi4yNjgtNS4wNjcuMzY1LTIuMzIxLTMuMi0yLjQ5OC0yLjAzOC02LjE1MiAyLjk2IDEuMDc2IDQuNTE2IDMuNDUzIDcuNjczIDQuMzQ2IDIuODg1LTYuMzEzLS4wNC0xNy40ODEuMzc1LTIyLjc1Ni4wNzktLjk5LjQ5NS01LjQ4OCAyLjcxNC00LjcgMS45NjQuNy0uMTEyIDExLjk2Mi4xMDMgMTYuOTU1LjE5NiA0LjYtLjU1NSA5LjA1IDEuMzA3IDExLjk0IDE1LjU2NC0yLjEyIDMxLjM4LTMuNDg4IDQ4LjIyLTMuOTUtMy43MDUtMS41OS04LjEwNi0zLjA5NC0xMi45MzEtNS44MTQtMi42MTYtMS40NzUtMTAuODYxLTQuNTQzLTExLjYxNi03LjAyOC0xLjIwNS0zLjk1OCAzLjE2LTYuMDY3IDMuOTA2LTkuNDYyLTcuODU2IDQuMjg1LTkuMzg5LTQuMTA4LTExLjI0OC0xMC4wNTMtMS42ODMtNS4zODUtMi42NDItOS40MDctMy4wNTYtMTIuNTEyLTYuNzY3LTMuMjI4LTE0LjAwMi02LjQ5NS0xOS44MjktMTAuNjMzem03OC43NjMtOC41OWMxMC44MzYtNS4yNTUgMTIuNzkgMTkuNjM5IDguNTQyIDI3LjY1OS42NTYgMi4zOTEgMi45MTUgMy4zMDggMy44MzYgNS40NTctNi4wNDcgMTAuODMzLTEyLjc2MyAyMC45NDYtMTguOTM1IDMxLjY1IDQuNTktMi44NTcgMTEuMTQ3LS41MSAxNi41NDgtMi42NSAxLjk3NC0uNzggMy40MDQtNS4zIDQuODk5LTguOTE2IDQuMTExLTkuOTQ3IDguNDI4LTIyLjQ4OCAxMC4zNDgtMzEuOTgyLjQzNC0yLjE2MyAxLjYxNS02Ljg3NiAxLjM1LTguODAxLS40NzItMy40NDgtNS4xNDgtNi4wMDMtNy41MjctOC4xMzQtNC4zODMtMy45MzgtNy4xNDMtNy40MDEtMTEuNzE0LTExLjA4My0xLjg1NCAyLjczNy01LjgzMiA0LjU3NC03LjM0NyA2Ljh6TTM0Ljk0NCA0NS4wMWMtNS4xNjQgNS42ODItNC4wODMgMTYuMzI4LTMuNDU4IDIzLjkwMiA5LjMzNC01Ljg3MiAyMS43MjEuNDYzIDIxLjYwNSAxMC40NSA0LjQ1Ni0uMTE4IDEuNjY1LTUuNTY0Ljg1OS05LjA3NC0yLjYzNC0xMS40NjEgNC40MzctMjMuOTE0LjMyMS0zNC4zOTUtNy45OTUuNjA1LTE0LjU2MiAzLjg3LTE5LjMyNyA5LjExN3pNNzEuODkgMTIuMDM1QzYwLjIgMTUuMzQ5IDQ1LjIxOSAyMy44NDIgNDAuNDE1IDM0LjM0NGMzLjcyLS41NCA2LjMwMS0yLjQxNyA5Ljk3MS0yLjY0OSAxLjM4Ni0uMDkgMy4yMDQuNTgxIDQuNzk4LjE4NSAzLjE3Ni0uNzg3IDUuODU2LTcuOTA5IDguMjUyLTEwLjU1OSAyLjMzNi0yLjU4NyA1LjE0My0zLjY5MiA3LjA2NC02LjA1MiAxLjIzNC0uNTk1IDMuMDU5LS41NTUgMy4xMy0yLjQwOC0uNTM1LS41NzEtMS4wOTktMS4wMDctMS43NC0uODI2em02MC44NTIgMy4xMTZDMTIwLjYxIDguMzA1IDEwMC4wNzMgMy4xNTYgODcuMTY2IDkuNTljLTEwLjQxNCA1LjE5My0yNC40OTEgMTMuNzg0LTI5LjI5MSAyNC42NzEgNC40ODQgMTAuNTA3LTEuMzI4IDIwLjEzMy0xLjY5OSAzMC43OTktLjE5NyA1LjY3NiAyLjY3MyAxMC42MyAyLjg5MyAxNi44MDktMS41MzQgMi41MzEtNi4yMjIgMi44NDItOS40NjcgMi42Ny0xLjA5Mi01LjQ2Ni0zLjAwMy0xMS42MDktOC42MzItMTIuMjI2LTcuOTY0LS44NzItMTMuNzg4IDUuNzItMTQuMTQ5IDEyLjYwNy0uNDI5IDguMSA2LjIyMSAyMS41MjUgMTUuNjQ2IDIwLjU5NCAzLjY0Mi0uMzYgNC41MzUtNC4wMSA4LjUwMy0zLjk3MyAyLjE1IDQuMjktMy4zMTcgNS42MzgtMy44NzkgOC43MDUtLjE0Ni43OTMuNDU0IDMuODkuODAyIDUuMzQzIDEuNzEzIDcuMDc0IDUuNTMgMTYuMjI3IDkuMjg2IDIxLjYxMiA0Ljc2NyA2LjgzIDE0LjEzMyA3Ljg2IDI0LjIxIDguNTI5IDEuOC0zLjg3NyA4LjQzLTMuNTU5IDEyLjc1LTIuNTQ0LTUuMTc3LTIuMDUtOS45OS03LjAyMS0xMy45OC0xMS40MjEtNC41ODItNS4wNDktOS4yMjMtMTAuNDY0LTkuNDU3LTE3LjA2MiA4LjY1OSAxMi4wMTIgMTUuODEzIDIyLjUwMyAzMS41NTggMjcuNzg3IDExLjkxNCAzLjk5NSAyNS44MjctMS44MzEgMzQuOTgyLTguMjYgMy43OTktMi42NzIgNi4wNjctNi45MTEgOC43NjctMTAuNzkyIDEwLjEwMi0xNC41MzMgMTQuODE3LTM1LjI3NCAxMy43OC01NS4zOC0uNDI3LTguMjktLjQwOC0xNi41NTQtMy4xOS0yMi4xMzItMi45MDgtNS44MzItMTIuNzQyLTExLjA1MS0xOC41LTUuNzc1LTEuMDY3LTUuNjcyIDQuNzg4LTkuMTggMTEuNjYzLTcuMTM4LTQuOTA1LTYuMzI1LTEwLjA1LTEzLjkzLTE3LjAxOC0xNy44NjJ6bTIyLjYwNiAxODcuMDc5YzkuNDgtNC43MTQgMjcuMTk2LTEyLjY4NiAzMy4xNC4wMTggMi4xOTMgNC42ODIgNC43NjcgMTIuNTk4IDUuOTAyIDE3LjQzMiAxLjYwNSA2LjgyLTEuNzQgMjEuMTU0LTguNzUgMjMuNDQzLTYuMTkxIDIuMDItMTMuNDE2IDEuODk3LTIwLjg3NC40LS44NzgtLjczLTEuODU2LTIuMDA0LTIuNTQtMy4zMzItNS4zMjUtLjIwNi0xMC4zMTEuMjg3LTE0LjUxNyAyLjQ3NS4zOTkgMy45MzgtMi4yNjUgNC41Ny00Ljc2MyA1LjM4Mi0xLjg1MSA3LjM0IDMuNzA0IDE2LjkyNiAyLjM3NCAyMy42Mi0uOTQ5IDQuNzY4LTYuODE1IDUuNTA2LTExLjEyNyA2LjM5Ny0uMTQyIDIuNjUuMTg4IDQuODYxLjQ4MiA3LjEwNC0uOTg2IDMuNjMyLTUuNDA5IDUuNzAxLTkuNTk5IDYuMjA3LTEzLjc4NiAxLjY1OC0zNC43MTggMi40MDMtNDcuOTgtMi4zNjYtMy43LTkuMDc2LTYuNjE1LTIwLjExNi05LjY5Ny0zMC40OC0xMi45MzMgMS4zODEtMjMuMzk0LTUuNTgtMzMuMjU0LTEwLjE0MS0zLjQxNC0xLjU4My04LjEzNy0yLjQ1NS05LjQxMi01LjE3My0xLjIzNy0yLjYzMS0uNzMtNy42NzQtMS4wMzgtMTIuNDM3LS43ODEtMTIuMTY3LTEuNDUtMjMuOTAyLTQuNjYyLTM2LjM1OC0xLjQ0LTUuNTktMy45NTQtMTAuNTIyLTUuNzA4LTE1LjkwOS0xLjYyMS00Ljk5Mi00LjQ1NC0xMS4xNi01LjE5Mi0xNi4xMzgtMS4wOTUtNy4zNzggNS44NTItNy43ODkgMTAuMjkzLTEwLjk4NSA2Ljg2OC00Ljk0NCAxMi4yNTgtNy42NzggMTkuNjk1LTEyLjE0IDIuMjAzLTEuMzIyIDguODQ3LTQuNjY3IDkuNjAyLTYuMjA3IDEuNTAyLTMuMDUzLTIuNTgtNy4zNi0zLjY3LTkuNzU1LTEuNzI1LTMuNzg2LTIuNjI0LTctMi44NzItMTAuNzM3LTYuMjM4LS45ODYtMTAuOTY4LTQuNjk5LTEzLjgyNS04Ljg4Ni00LjcyNi02LjkyOS04LjAwMi0xOS43NDgtMy45MTMtMjkuNDk5LjMyLS43NjggMS45Mi0yLjI3OCAyLjE1Ni0zLjQ1OC40NjUtMi4zMjItLjg3Ni01LjQxLS45NTktNy44OC0uNDMtMTIuNjc1IDIuMTQ0LTIzLjU5NSAxMC42NzYtMjcuNDE2IDMuNDY0LTEzLjc5NyAxNS44Ni0xOC4zODYgMjcuNTQtMjUuMjQ0IDQuMzY3LTIuNTYyIDkuMTc5LTQuMiAxNC4xNDktNi4wMyAxNy44My02LjU2MiA0NS4xODgtNS4zMjYgNTkuOTg1IDUuODY1IDYuMjc1IDQuNzQ3IDE2LjMwNSAxNC43NjcgMTkuODkyIDIyLjAyMiA5LjQ3NSAxOS4xNTMgOC44MDMgNTEuMTYzIDIuMTc1IDc0LjQ2My0uODkgMy4xMjgtMi4xODIgNy43MjctMy45ODcgMTEuNDg0LTEuMjU4IDIuNjI0LTUuMTY4IDcuODc0LTQuNjk0IDEwLjE5LjQ4OSAyLjM5NSA4LjkxNSA4Ljc5MyAxMC43MjEgMTAuNTM1IDMuMjU0IDMuMTM5IDkuNDM1IDcuMzA0IDkuOTM1IDExLjI2NS41NCA0LjIxNS0xLjg1NyA5Ljk4MS0zLjA3IDE0LjA0OC00LjA1NyAxMy41NzUtOC4wMTYgMjYuMTItMTIuNjE1IDM4LjIyMSIgZmlsbD0iIzIzMUYyMCIvPjxwYXRoIGQ9Ik05Mi4wOTMgMTA4LjI3NWMuNTEzLS42ODUgMy4zNDItMS43MjUgNy4yOTguMTggMCAwLTQuNjkuNzgyLTQuMyA4LjYwMWwtMS45NTMtLjM5MXMtMi4wMi03LjA5LTEuMDQ2LTguMzkiIGZpbGw9IiNGN0U0Q0QiLz48cGF0aCBkPSJNMTI2LjM1OCAxNzUuNDc5YTIuMTUgMi4xNSAwIDExLTQuMy0uMDAyIDIuMTUgMi4xNSAwIDAxNC4zLjAwMm0yLjE0OCA5Ljk2NWEyLjE1IDIuMTUgMCAxMS00LjI5OS0uMDAyIDIuMTUgMi4xNSAwIDAxNC4zLjAwMiIgZmlsbD0iIzFEMTkxOSIvPjxwYXRoIGQ9Ik0xNy44MzYgMTc3LjM3OWg2OC40NDZjLjU0MyAwIC45ODMuNDQuOTgzLjk4MnYyLjE1NWMwIC41NDMtLjQ0Ljk4My0uOTgzLjk4M0gxNy44MzdhLjk4My45ODMgMCAwMS0uOTgyLS45ODN2LTIuMTU1YzAtLjU0Mi40NC0uOTgyLjk4Mi0uOTgyem04MS4yNzQgMGg2MC41ODFjLjU0MyAwIC45ODMuNDQuOTgzLjk4MnYyLjE1NWMwIC41NDMtLjQ0Ljk4My0uOTgzLjk4M0g5OS4xMWEuOTgzLjk4MyAwIDAxLS45ODItLjk4M3YtMi4xNTVjMC0uNTQyLjQ0LS45ODIuOTgyLS45ODJ6Ii8+PHBhdGggZD0iTTE3LjgzNiAxNzUuMzc5SDg0LjQxYy41NDIgMCAuOTgzLjQ0Ljk4My45ODJ2Mi4xNTRjMCAuNTQyLS40NC45ODMtLjk4My45ODNIMTcuODM2YS45ODMuOTgzIDAgMDEtLjk4Mi0uOTgzdi0yLjE1NWMwLS41NDEuNDQtLjk4MS45ODItLjk4MXptODcuMjY2IDBoNTQuNTljLjU0MiAwIC45ODIuNDQuOTgyLjk4MnYyLjE1NGMwIC41NDItLjQ0Ljk4My0uOTgzLjk4M2gtNTQuNTg4YS45ODMuOTgzIDAgMDEtLjk4My0uOTgzdi0yLjE1NWMwLS41NDEuNDQtLjk4MS45ODMtLjk4MXoiLz48L3N2Zz4=;" vertex="1" parent="1">
          <mxGeometry x="1057.97" y="314" width="64.07" height="100" as="geometry" />
        </mxCell>
        <mxCell id="-CglULp98W2lR8GV_lNq-18" value="Ansible" style="shape=rect;fillColor=#EE5396;aspect=fixed;resizable=0;labelPosition=center;verticalLabelPosition=bottom;align=center;verticalAlign=top;strokeColor=none;fontSize=14;" vertex="1" parent="1">
          <mxGeometry x="800" y="340" width="48" height="48" as="geometry" />
        </mxCell>
        <mxCell id="-CglULp98W2lR8GV_lNq-19" value="" style="fillColor=#ffffff;strokeColor=none;dashed=0;outlineConnect=0;html=1;labelPosition=center;verticalLabelPosition=bottom;verticalAlign=top;part=1;movable=0;resizable=0;rotatable=0;shape=mxgraph.ibm_cloud.logo--ansible-community" vertex="1" parent="-CglULp98W2lR8GV_lNq-18">
          <mxGeometry width="24" height="24" relative="1" as="geometry">
            <mxPoint x="12" y="12" as="offset" />
          </mxGeometry>
        </mxCell>
        <mxCell id="-CglULp98W2lR8GV_lNq-20" value="Pull image from DockerHub" style="edgeStyle=orthogonalEdgeStyle;rounded=0;orthogonalLoop=1;jettySize=auto;html=1;fontFamily=Verdana;fontSize=13;" edge="1" parent="1" target="-CglULp98W2lR8GV_lNq-6">
          <mxGeometry relative="1" as="geometry">
            <mxPoint x="840" y="364" as="sourcePoint" />
          </mxGeometry>
        </mxCell>
        <mxCell id="-CglULp98W2lR8GV_lNq-24" value="deploy app " style="edgeStyle=orthogonalEdgeStyle;rounded=0;orthogonalLoop=1;jettySize=auto;html=1;entryX=0.989;entryY=0.367;entryDx=0;entryDy=0;entryPerimeter=0;fontFamily=Verdana;fontSize=14;" edge="1" parent="1" source="-CglULp98W2lR8GV_lNq-19">
          <mxGeometry relative="1" as="geometry">
            <mxPoint x="620.9508599999999" y="364.222" as="targetPoint" />
          </mxGeometry>
        </mxCell>
        <mxCell id="-CglULp98W2lR8GV_lNq-25" value="" style="image;sketch=0;aspect=fixed;html=1;points=[];align=center;fontSize=12;image=img/lib/mscae/Virtual_Machine_2.svg;" vertex="1" parent="1">
          <mxGeometry x="550" y="342" width="70" height="64.4" as="geometry" />
        </mxCell>
        <mxCell id="-CglULp98W2lR8GV_lNq-26" value="" style="points=[];aspect=fixed;html=1;align=center;shadow=0;dashed=0;fillColor=#FF6A00;strokeColor=none;shape=mxgraph.alibaba_cloud.prometheus;" vertex="1" parent="1">
          <mxGeometry x="310" y="326.4" width="80" height="80" as="geometry" />
        </mxCell>
        <mxCell id="-CglULp98W2lR8GV_lNq-28" value="monitor app" style="edgeStyle=orthogonalEdgeStyle;rounded=0;orthogonalLoop=1;jettySize=auto;html=1;entryX=0;entryY=0.379;entryDx=0;entryDy=0;entryPerimeter=0;fontFamily=Verdana;fontSize=14;" edge="1" parent="1" source="-CglULp98W2lR8GV_lNq-26" target="-CglULp98W2lR8GV_lNq-25">
          <mxGeometry relative="1" as="geometry" />
        </mxCell>
      </root>
    </mxGraphModel>
  </diagram>
</mxfile>
